<?xml version="1.0" encoding="utf-8" standalone="no"?>
<!DOCTYPE svg PUBLIC "-//W3C//DTD SVG 1.1//EN"
  "http://www.w3.org/Graphics/SVG/1.1/DTD/svg11.dtd">
<svg height="108pt" version="1.1" viewBox="0 0 360 108" width="360pt" xmlns="http://www.w3.org/2000/svg" xmlns:xlink="http://www.w3.org/1999/xlink">
 <metadata>
  <rdf:RDF xmlns:cc="http://creativecommons.org/ns#" xmlns:dc="http://purl.org/dc/elements/1.1/" xmlns:rdf="http://www.w3.org/1999/02/22-rdf-syntax-ns#">
   <cc:Work>
    <dc:type rdf:resource="http://purl.org/dc/dcmitype/StillImage"/>
    <dc:date>2024-01-12T14:29:42.377203</dc:date>
    <dc:format>image/svg+xml</dc:format>
    <dc:creator>
     <cc:Agent>
      <dc:title>Matplotlib v3.4.3, https://matplotlib.org/</dc:title>
     </cc:Agent>
    </dc:creator>
   </cc:Work>
  </rdf:RDF>
 </metadata>
 <defs>
  <style type="text/css">*{stroke-linecap:butt;stroke-linejoin:round;}</style>
 </defs>
 <g id="figure_1">
  <g id="patch_1">
   <path d="M 0 108 
L 360 108 
L 360 0 
L 0 0 
z
" style="fill:#ffffff;"/>
  </g>
  <g id="axes_1">
   <g id="patch_2">
    <path d="M 45.790625 72.279375 
L 314.209375 72.279375 
L 314.209375 28.437419 
L 45.790625 28.437419 
z
" style="fill:#ffffff;"/>
   </g>
   <g id="matplotlib.axis_1">
    <g id="xtick_1">
     <g id="line2d_1">
      <path clip-path="url(#p946c21a5b9)" d="M 45.790625 72.279375 
L 45.790625 28.437419 
" style="fill:none;stroke:#b0b0b0;stroke-dasharray:0.4,0.66;stroke-dashoffset:0;stroke-width:0.4;"/>
     </g>
     <g id="line2d_2">
      <defs>
       <path d="M 0 0 
L 0 -3.5 
" id="mcecd74eeaf" style="stroke:#000000;stroke-width:0.4;"/>
      </defs>
      <g>
       <use style="stroke:#000000;stroke-width:0.4;" x="45.790625" xlink:href="#mcecd74eeaf" y="72.279375"/>
      </g>
     </g>
     <g id="line2d_3">
      <defs>
       <path d="M 0 0 
L 0 3.5 
" id="md283ad1134" style="stroke:#000000;stroke-width:0.4;"/>
      </defs>
      <g>
       <use style="stroke:#000000;stroke-width:0.4;" x="45.790625" xlink:href="#md283ad1134" y="28.437419"/>
      </g>
     </g>
     <g id="text_1">
      <!-- 00 -->
      <g transform="translate(40.700625 81.858125)scale(0.08 -0.08)">
       <defs>
        <path d="M 2034 219 
Q 2513 219 2750 744 
Q 2988 1269 2988 2328 
Q 2988 3391 2750 3916 
Q 2513 4441 2034 4441 
Q 1556 4441 1318 3916 
Q 1081 3391 1081 2328 
Q 1081 1269 1318 744 
Q 1556 219 2034 219 
z
M 2034 -91 
Q 1275 -91 848 546 
Q 422 1184 422 2328 
Q 422 3475 848 4112 
Q 1275 4750 2034 4750 
Q 2797 4750 3222 4112 
Q 3647 3475 3647 2328 
Q 3647 1184 3222 546 
Q 2797 -91 2034 -91 
z
" id="DejaVuSerif-30" transform="scale(0.015625)"/>
       </defs>
       <use xlink:href="#DejaVuSerif-30"/>
       <use x="63.623047" xlink:href="#DejaVuSerif-30"/>
      </g>
     </g>
    </g>
    <g id="xtick_2">
     <g id="line2d_4">
      <path clip-path="url(#p946c21a5b9)" d="M 68.394309 72.279375 
L 68.394309 28.437419 
" style="fill:none;stroke:#b0b0b0;stroke-dasharray:0.4,0.66;stroke-dashoffset:0;stroke-width:0.4;"/>
     </g>
     <g id="line2d_5">
      <g>
       <use style="stroke:#000000;stroke-width:0.4;" x="68.394309" xlink:href="#mcecd74eeaf" y="72.279375"/>
      </g>
     </g>
     <g id="line2d_6">
      <g>
       <use style="stroke:#000000;stroke-width:0.4;" x="68.394309" xlink:href="#md283ad1134" y="28.437419"/>
      </g>
     </g>
     <g id="text_2">
      <!-- 02 -->
      <g transform="translate(63.304309 81.858125)scale(0.08 -0.08)">
       <defs>
        <path d="M 819 3553 
L 469 3553 
L 469 4384 
Q 803 4563 1142 4656 
Q 1481 4750 1806 4750 
Q 2534 4750 2956 4397 
Q 3378 4044 3378 3438 
Q 3378 2753 2422 1800 
Q 2347 1728 2309 1691 
L 1131 513 
L 3078 513 
L 3078 1088 
L 3444 1088 
L 3444 0 
L 434 0 
L 434 341 
L 1850 1753 
Q 2319 2222 2519 2614 
Q 2719 3006 2719 3438 
Q 2719 3909 2473 4175 
Q 2228 4441 1797 4441 
Q 1350 4441 1106 4219 
Q 863 3997 819 3553 
z
" id="DejaVuSerif-32" transform="scale(0.015625)"/>
       </defs>
       <use xlink:href="#DejaVuSerif-30"/>
       <use x="63.623047" xlink:href="#DejaVuSerif-32"/>
      </g>
     </g>
    </g>
    <g id="xtick_3">
     <g id="line2d_7">
      <path clip-path="url(#p946c21a5b9)" d="M 90.997993 72.279375 
L 90.997993 28.437419 
" style="fill:none;stroke:#b0b0b0;stroke-dasharray:0.4,0.66;stroke-dashoffset:0;stroke-width:0.4;"/>
     </g>
     <g id="line2d_8">
      <g>
       <use style="stroke:#000000;stroke-width:0.4;" x="90.997993" xlink:href="#mcecd74eeaf" y="72.279375"/>
      </g>
     </g>
     <g id="line2d_9">
      <g>
       <use style="stroke:#000000;stroke-width:0.4;" x="90.997993" xlink:href="#md283ad1134" y="28.437419"/>
      </g>
     </g>
     <g id="text_3">
      <!-- 04 -->
      <g transform="translate(85.907993 81.858125)scale(0.08 -0.08)">
       <defs>
        <path d="M 2234 1581 
L 2234 4063 
L 641 1581 
L 2234 1581 
z
M 3609 0 
L 1484 0 
L 1484 331 
L 2234 331 
L 2234 1247 
L 197 1247 
L 197 1588 
L 2241 4750 
L 2859 4750 
L 2859 1581 
L 3750 1581 
L 3750 1247 
L 2859 1247 
L 2859 331 
L 3609 331 
L 3609 0 
z
" id="DejaVuSerif-34" transform="scale(0.015625)"/>
       </defs>
       <use xlink:href="#DejaVuSerif-30"/>
       <use x="63.623047" xlink:href="#DejaVuSerif-34"/>
      </g>
     </g>
    </g>
    <g id="xtick_4">
     <g id="line2d_10">
      <path clip-path="url(#p946c21a5b9)" d="M 113.601678 72.279375 
L 113.601678 28.437419 
" style="fill:none;stroke:#b0b0b0;stroke-dasharray:0.4,0.66;stroke-dashoffset:0;stroke-width:0.4;"/>
     </g>
     <g id="line2d_11">
      <g>
       <use style="stroke:#000000;stroke-width:0.4;" x="113.601678" xlink:href="#mcecd74eeaf" y="72.279375"/>
      </g>
     </g>
     <g id="line2d_12">
      <g>
       <use style="stroke:#000000;stroke-width:0.4;" x="113.601678" xlink:href="#md283ad1134" y="28.437419"/>
      </g>
     </g>
     <g id="text_4">
      <!-- 06 -->
      <g transform="translate(108.511678 81.858125)scale(0.08 -0.08)">
       <defs>
        <path d="M 2094 219 
Q 2534 219 2771 542 
Q 3009 866 3009 1472 
Q 3009 2078 2771 2401 
Q 2534 2725 2094 2725 
Q 1647 2725 1412 2412 
Q 1178 2100 1178 1509 
Q 1178 888 1415 553 
Q 1653 219 2094 219 
z
M 1075 2569 
Q 1288 2803 1556 2918 
Q 1825 3034 2163 3034 
Q 2859 3034 3264 2615 
Q 3669 2197 3669 1472 
Q 3669 763 3233 336 
Q 2797 -91 2069 -91 
Q 1278 -91 853 498 
Q 428 1088 428 2181 
Q 428 3406 931 4078 
Q 1434 4750 2350 4750 
Q 2597 4750 2869 4703 
Q 3141 4656 3425 4563 
L 3425 3794 
L 3072 3794 
Q 3034 4109 2831 4275 
Q 2628 4441 2284 4441 
Q 1678 4441 1381 3981 
Q 1084 3522 1075 2569 
z
" id="DejaVuSerif-36" transform="scale(0.015625)"/>
       </defs>
       <use xlink:href="#DejaVuSerif-30"/>
       <use x="63.623047" xlink:href="#DejaVuSerif-36"/>
      </g>
     </g>
    </g>
    <g id="xtick_5">
     <g id="line2d_13">
      <path clip-path="url(#p946c21a5b9)" d="M 136.205362 72.279375 
L 136.205362 28.437419 
" style="fill:none;stroke:#b0b0b0;stroke-dasharray:0.4,0.66;stroke-dashoffset:0;stroke-width:0.4;"/>
     </g>
     <g id="line2d_14">
      <g>
       <use style="stroke:#000000;stroke-width:0.4;" x="136.205362" xlink:href="#mcecd74eeaf" y="72.279375"/>
      </g>
     </g>
     <g id="line2d_15">
      <g>
       <use style="stroke:#000000;stroke-width:0.4;" x="136.205362" xlink:href="#md283ad1134" y="28.437419"/>
      </g>
     </g>
     <g id="text_5">
      <!-- 08 -->
      <g transform="translate(131.115362 81.858125)scale(0.08 -0.08)">
       <defs>
        <path d="M 2981 1275 
Q 2981 1775 2732 2051 
Q 2484 2328 2034 2328 
Q 1584 2328 1336 2051 
Q 1088 1775 1088 1275 
Q 1088 772 1336 495 
Q 1584 219 2034 219 
Q 2484 219 2732 495 
Q 2981 772 2981 1275 
z
M 2853 3541 
Q 2853 3966 2637 4203 
Q 2422 4441 2034 4441 
Q 1650 4441 1433 4203 
Q 1216 3966 1216 3541 
Q 1216 3113 1433 2875 
Q 1650 2638 2034 2638 
Q 2422 2638 2637 2875 
Q 2853 3113 2853 3541 
z
M 2516 2484 
Q 3047 2413 3344 2092 
Q 3641 1772 3641 1275 
Q 3641 619 3225 264 
Q 2809 -91 2034 -91 
Q 1263 -91 845 264 
Q 428 619 428 1275 
Q 428 1772 725 2092 
Q 1022 2413 1556 2484 
Q 1084 2569 832 2842 
Q 581 3116 581 3541 
Q 581 4103 968 4426 
Q 1356 4750 2034 4750 
Q 2713 4750 3100 4426 
Q 3488 4103 3488 3541 
Q 3488 3116 3236 2842 
Q 2984 2569 2516 2484 
z
" id="DejaVuSerif-38" transform="scale(0.015625)"/>
       </defs>
       <use xlink:href="#DejaVuSerif-30"/>
       <use x="63.623047" xlink:href="#DejaVuSerif-38"/>
      </g>
     </g>
    </g>
    <g id="xtick_6">
     <g id="line2d_16">
      <path clip-path="url(#p946c21a5b9)" d="M 158.809046 72.279375 
L 158.809046 28.437419 
" style="fill:none;stroke:#b0b0b0;stroke-dasharray:0.4,0.66;stroke-dashoffset:0;stroke-width:0.4;"/>
     </g>
     <g id="line2d_17">
      <g>
       <use style="stroke:#000000;stroke-width:0.4;" x="158.809046" xlink:href="#mcecd74eeaf" y="72.279375"/>
      </g>
     </g>
     <g id="line2d_18">
      <g>
       <use style="stroke:#000000;stroke-width:0.4;" x="158.809046" xlink:href="#md283ad1134" y="28.437419"/>
      </g>
     </g>
     <g id="text_6">
      <!-- 10 -->
      <g transform="translate(153.719046 81.858125)scale(0.08 -0.08)">
       <defs>
        <path d="M 909 0 
L 909 331 
L 1722 331 
L 1722 4213 
L 781 3603 
L 781 4013 
L 1919 4750 
L 2350 4750 
L 2350 331 
L 3163 331 
L 3163 0 
L 909 0 
z
" id="DejaVuSerif-31" transform="scale(0.015625)"/>
       </defs>
       <use xlink:href="#DejaVuSerif-31"/>
       <use x="63.623047" xlink:href="#DejaVuSerif-30"/>
      </g>
     </g>
    </g>
    <g id="xtick_7">
     <g id="line2d_19">
      <path clip-path="url(#p946c21a5b9)" d="M 181.41273 72.279375 
L 181.41273 28.437419 
" style="fill:none;stroke:#b0b0b0;stroke-dasharray:0.4,0.66;stroke-dashoffset:0;stroke-width:0.4;"/>
     </g>
     <g id="line2d_20">
      <g>
       <use style="stroke:#000000;stroke-width:0.4;" x="181.41273" xlink:href="#mcecd74eeaf" y="72.279375"/>
      </g>
     </g>
     <g id="line2d_21">
      <g>
       <use style="stroke:#000000;stroke-width:0.4;" x="181.41273" xlink:href="#md283ad1134" y="28.437419"/>
      </g>
     </g>
     <g id="text_7">
      <!-- 12 -->
      <g transform="translate(176.32273 81.858125)scale(0.08 -0.08)">
       <use xlink:href="#DejaVuSerif-31"/>
       <use x="63.623047" xlink:href="#DejaVuSerif-32"/>
      </g>
     </g>
    </g>
    <g id="xtick_8">
     <g id="line2d_22">
      <path clip-path="url(#p946c21a5b9)" d="M 204.016414 72.279375 
L 204.016414 28.437419 
" style="fill:none;stroke:#b0b0b0;stroke-dasharray:0.4,0.66;stroke-dashoffset:0;stroke-width:0.4;"/>
     </g>
     <g id="line2d_23">
      <g>
       <use style="stroke:#000000;stroke-width:0.4;" x="204.016414" xlink:href="#mcecd74eeaf" y="72.279375"/>
      </g>
     </g>
     <g id="line2d_24">
      <g>
       <use style="stroke:#000000;stroke-width:0.4;" x="204.016414" xlink:href="#md283ad1134" y="28.437419"/>
      </g>
     </g>
     <g id="text_8">
      <!-- 14 -->
      <g transform="translate(198.926414 81.858125)scale(0.08 -0.08)">
       <use xlink:href="#DejaVuSerif-31"/>
       <use x="63.623047" xlink:href="#DejaVuSerif-34"/>
      </g>
     </g>
    </g>
    <g id="xtick_9">
     <g id="line2d_25">
      <path clip-path="url(#p946c21a5b9)" d="M 226.620099 72.279375 
L 226.620099 28.437419 
" style="fill:none;stroke:#b0b0b0;stroke-dasharray:0.4,0.66;stroke-dashoffset:0;stroke-width:0.4;"/>
     </g>
     <g id="line2d_26">
      <g>
       <use style="stroke:#000000;stroke-width:0.4;" x="226.620099" xlink:href="#mcecd74eeaf" y="72.279375"/>
      </g>
     </g>
     <g id="line2d_27">
      <g>
       <use style="stroke:#000000;stroke-width:0.4;" x="226.620099" xlink:href="#md283ad1134" y="28.437419"/>
      </g>
     </g>
     <g id="text_9">
      <!-- 16 -->
      <g transform="translate(221.530099 81.858125)scale(0.08 -0.08)">
       <use xlink:href="#DejaVuSerif-31"/>
       <use x="63.623047" xlink:href="#DejaVuSerif-36"/>
      </g>
     </g>
    </g>
    <g id="xtick_10">
     <g id="line2d_28">
      <path clip-path="url(#p946c21a5b9)" d="M 249.223783 72.279375 
L 249.223783 28.437419 
" style="fill:none;stroke:#b0b0b0;stroke-dasharray:0.4,0.66;stroke-dashoffset:0;stroke-width:0.4;"/>
     </g>
     <g id="line2d_29">
      <g>
       <use style="stroke:#000000;stroke-width:0.4;" x="249.223783" xlink:href="#mcecd74eeaf" y="72.279375"/>
      </g>
     </g>
     <g id="line2d_30">
      <g>
       <use style="stroke:#000000;stroke-width:0.4;" x="249.223783" xlink:href="#md283ad1134" y="28.437419"/>
      </g>
     </g>
     <g id="text_10">
      <!-- 18 -->
      <g transform="translate(244.133783 81.858125)scale(0.08 -0.08)">
       <use xlink:href="#DejaVuSerif-31"/>
       <use x="63.623047" xlink:href="#DejaVuSerif-38"/>
      </g>
     </g>
    </g>
    <g id="xtick_11">
     <g id="line2d_31">
      <path clip-path="url(#p946c21a5b9)" d="M 271.827467 72.279375 
L 271.827467 28.437419 
" style="fill:none;stroke:#b0b0b0;stroke-dasharray:0.4,0.66;stroke-dashoffset:0;stroke-width:0.4;"/>
     </g>
     <g id="line2d_32">
      <g>
       <use style="stroke:#000000;stroke-width:0.4;" x="271.827467" xlink:href="#mcecd74eeaf" y="72.279375"/>
      </g>
     </g>
     <g id="line2d_33">
      <g>
       <use style="stroke:#000000;stroke-width:0.4;" x="271.827467" xlink:href="#md283ad1134" y="28.437419"/>
      </g>
     </g>
     <g id="text_11">
      <!-- 20 -->
      <g transform="translate(266.737467 81.858125)scale(0.08 -0.08)">
       <use xlink:href="#DejaVuSerif-32"/>
       <use x="63.623047" xlink:href="#DejaVuSerif-30"/>
      </g>
     </g>
    </g>
    <g id="xtick_12">
     <g id="line2d_34">
      <path clip-path="url(#p946c21a5b9)" d="M 294.431151 72.279375 
L 294.431151 28.437419 
" style="fill:none;stroke:#b0b0b0;stroke-dasharray:0.4,0.66;stroke-dashoffset:0;stroke-width:0.4;"/>
     </g>
     <g id="line2d_35">
      <g>
       <use style="stroke:#000000;stroke-width:0.4;" x="294.431151" xlink:href="#mcecd74eeaf" y="72.279375"/>
      </g>
     </g>
     <g id="line2d_36">
      <g>
       <use style="stroke:#000000;stroke-width:0.4;" x="294.431151" xlink:href="#md283ad1134" y="28.437419"/>
      </g>
     </g>
     <g id="text_12">
      <!-- 22 -->
      <g transform="translate(289.341151 81.858125)scale(0.08 -0.08)">
       <use xlink:href="#DejaVuSerif-32"/>
       <use x="63.623047" xlink:href="#DejaVuSerif-32"/>
      </g>
     </g>
    </g>
    <g id="text_13">
     <!-- Time -->
     <g transform="translate(167.364844 95.120312)scale(0.1 -0.1)">
      <defs>
       <path d="M 1222 0 
L 1222 331 
L 1819 331 
L 1819 4294 
L 447 4294 
L 447 3566 
L 63 3566 
L 63 4666 
L 4206 4666 
L 4206 3566 
L 3822 3566 
L 3822 4294 
L 2450 4294 
L 2450 331 
L 3047 331 
L 3047 0 
L 1222 0 
z
" id="DejaVuSerif-54" transform="scale(0.015625)"/>
       <path d="M 622 4353 
Q 622 4497 726 4603 
Q 831 4709 978 4709 
Q 1122 4709 1226 4603 
Q 1331 4497 1331 4353 
Q 1331 4206 1228 4103 
Q 1125 4000 978 4000 
Q 831 4000 726 4103 
Q 622 4206 622 4353 
z
M 1356 331 
L 1900 331 
L 1900 0 
L 231 0 
L 231 331 
L 781 331 
L 781 2988 
L 231 2988 
L 231 3322 
L 1356 3322 
L 1356 331 
z
" id="DejaVuSerif-69" transform="scale(0.015625)"/>
       <path d="M 3316 2675 
Q 3481 3041 3739 3227 
Q 3997 3413 4341 3413 
Q 4863 3413 5119 3089 
Q 5375 2766 5375 2113 
L 5375 331 
L 5894 331 
L 5894 0 
L 4300 0 
L 4300 331 
L 4800 331 
L 4800 2047 
Q 4800 2556 4650 2772 
Q 4500 2988 4153 2988 
Q 3769 2988 3567 2697 
Q 3366 2406 3366 1850 
L 3366 331 
L 3866 331 
L 3866 0 
L 2291 0 
L 2291 331 
L 2791 331 
L 2791 2069 
Q 2791 2566 2641 2777 
Q 2491 2988 2144 2988 
Q 1759 2988 1557 2697 
Q 1356 2406 1356 1850 
L 1356 331 
L 1856 331 
L 1856 0 
L 263 0 
L 263 331 
L 781 331 
L 781 2994 
L 231 2994 
L 231 3322 
L 1356 3322 
L 1356 2731 
Q 1516 3063 1762 3238 
Q 2009 3413 2322 3413 
Q 2709 3413 2968 3220 
Q 3228 3028 3316 2675 
z
" id="DejaVuSerif-6d" transform="scale(0.015625)"/>
       <path d="M 3469 1600 
L 991 1600 
L 991 1575 
Q 991 903 1244 561 
Q 1497 219 1991 219 
Q 2369 219 2611 417 
Q 2853 616 2950 1006 
L 3413 1006 
Q 3275 459 2904 184 
Q 2534 -91 1931 -91 
Q 1203 -91 761 389 
Q 319 869 319 1663 
Q 319 2450 753 2931 
Q 1188 3413 1894 3413 
Q 2647 3413 3050 2948 
Q 3453 2484 3469 1600 
z
M 2791 1931 
Q 2772 2513 2545 2808 
Q 2319 3103 1894 3103 
Q 1497 3103 1269 2806 
Q 1041 2509 991 1931 
L 2791 1931 
z
" id="DejaVuSerif-65" transform="scale(0.015625)"/>
      </defs>
      <use xlink:href="#DejaVuSerif-54"/>
      <use x="66.699219" xlink:href="#DejaVuSerif-69"/>
      <use x="98.681641" xlink:href="#DejaVuSerif-6d"/>
      <use x="193.505859" xlink:href="#DejaVuSerif-65"/>
     </g>
    </g>
   </g>
   <g id="matplotlib.axis_2">
    <g id="ytick_1">
     <g id="line2d_37">
      <path clip-path="url(#p946c21a5b9)" d="M 45.790625 68.152031 
L 314.209375 68.152031 
" style="fill:none;stroke:#b0b0b0;stroke-dasharray:0.4,0.66;stroke-dashoffset:0;stroke-width:0.4;"/>
     </g>
     <g id="line2d_38">
      <defs>
       <path d="M 0 0 
L 3.5 0 
" id="m59be36bb2a" style="stroke:#000000;stroke-width:0.4;"/>
      </defs>
      <g>
       <use style="stroke:#000000;stroke-width:0.4;" x="45.790625" xlink:href="#m59be36bb2a" y="68.152031"/>
      </g>
     </g>
     <g id="text_14">
      <!-- 0.2 -->
      <g transform="translate(29.568125 71.191406)scale(0.08 -0.08)">
       <defs>
        <path d="M 603 325 
Q 603 500 722 622 
Q 841 744 1019 744 
Q 1191 744 1312 622 
Q 1434 500 1434 325 
Q 1434 153 1312 31 
Q 1191 -91 1019 -91 
Q 841 -91 722 29 
Q 603 150 603 325 
z
" id="DejaVuSerif-2e" transform="scale(0.015625)"/>
       </defs>
       <use xlink:href="#DejaVuSerif-30"/>
       <use x="63.623047" xlink:href="#DejaVuSerif-2e"/>
       <use x="95.410156" xlink:href="#DejaVuSerif-32"/>
      </g>
     </g>
    </g>
    <g id="ytick_2">
     <g id="line2d_39">
      <path clip-path="url(#p946c21a5b9)" d="M 45.790625 32.724188 
L 314.209375 32.724188 
" style="fill:none;stroke:#b0b0b0;stroke-dasharray:0.4,0.66;stroke-dashoffset:0;stroke-width:0.4;"/>
     </g>
     <g id="line2d_40">
      <g>
       <use style="stroke:#000000;stroke-width:0.4;" x="45.790625" xlink:href="#m59be36bb2a" y="32.724188"/>
      </g>
     </g>
     <g id="text_15">
      <!-- 0.4 -->
      <g transform="translate(29.568125 35.763563)scale(0.08 -0.08)">
       <use xlink:href="#DejaVuSerif-30"/>
       <use x="63.623047" xlink:href="#DejaVuSerif-2e"/>
       <use x="95.410156" xlink:href="#DejaVuSerif-34"/>
      </g>
     </g>
    </g>
    <g id="text_16">
     <!-- Price [€/kWh] -->
     <g transform="translate(23.488438 85.216209)rotate(-90)scale(0.1 -0.1)">
      <defs>
       <path d="M 1581 2375 
L 2406 2375 
Q 2872 2375 3115 2626 
Q 3359 2878 3359 3353 
Q 3359 3831 3115 4081 
Q 2872 4331 2406 4331 
L 1581 4331 
L 1581 2375 
z
M 353 0 
L 353 331 
L 947 331 
L 947 4331 
L 353 4331 
L 353 4666 
L 2559 4666 
Q 3259 4666 3668 4311 
Q 4078 3956 4078 3353 
Q 4078 2753 3668 2397 
Q 3259 2041 2559 2041 
L 1581 2041 
L 1581 331 
L 2303 331 
L 2303 0 
L 353 0 
z
" id="DejaVuSerif-50" transform="scale(0.015625)"/>
       <path d="M 3059 3328 
L 3059 2497 
L 2728 2497 
Q 2713 2744 2591 2866 
Q 2469 2988 2234 2988 
Q 1809 2988 1582 2694 
Q 1356 2400 1356 1850 
L 1356 331 
L 2022 331 
L 2022 0 
L 263 0 
L 263 331 
L 781 331 
L 781 2994 
L 231 2994 
L 231 3322 
L 1356 3322 
L 1356 2731 
Q 1525 3078 1790 3245 
Q 2056 3413 2438 3413 
Q 2578 3413 2733 3391 
Q 2888 3369 3059 3328 
z
" id="DejaVuSerif-72" transform="scale(0.015625)"/>
       <path d="M 3291 997 
Q 3169 466 2822 187 
Q 2475 -91 1925 -91 
Q 1200 -91 759 389 
Q 319 869 319 1663 
Q 319 2459 759 2936 
Q 1200 3413 1925 3413 
Q 2241 3413 2553 3339 
Q 2866 3266 3181 3116 
L 3181 2266 
L 2847 2266 
Q 2781 2703 2561 2903 
Q 2341 3103 1931 3103 
Q 1466 3103 1228 2742 
Q 991 2381 991 1663 
Q 991 944 1227 581 
Q 1463 219 1931 219 
Q 2303 219 2525 412 
Q 2747 606 2828 997 
L 3291 997 
z
" id="DejaVuSerif-63" transform="scale(0.015625)"/>
       <path id="DejaVuSerif-20" transform="scale(0.015625)"/>
       <path d="M 550 4863 
L 2003 4863 
L 2003 4531 
L 1147 4531 
L 1147 -513 
L 2003 -513 
L 2003 -844 
L 550 -844 
L 550 4863 
z
" id="DejaVuSerif-5b" transform="scale(0.015625)"/>
       <path d="M 3553 1234 
Q 3419 594 3058 251 
Q 2697 -91 2156 -91 
Q 1566 -91 1141 384 
Q 716 859 569 1684 
L -25 1684 
L 116 2009 
L 538 2009 
Q 534 2056 531 2131 
Q 525 2284 525 2328 
Q 525 2434 528 2509 
Q 531 2584 538 2656 
L -25 2656 
L 116 2981 
L 569 2981 
Q 716 3806 1139 4278 
Q 1563 4750 2156 4750 
Q 2466 4750 2777 4653 
Q 3088 4556 3475 4341 
L 3475 3272 
L 3144 3272 
Q 3081 3834 2842 4137 
Q 2603 4441 2222 4441 
Q 1797 4441 1539 4069 
Q 1281 3697 1216 2981 
L 2791 2981 
L 2644 2656 
L 1197 2656 
Q 1194 2613 1191 2541 
Q 1184 2381 1184 2328 
Q 1184 2300 1187 2194 
Q 1191 2088 1191 2009 
L 2363 2009 
L 2216 1684 
L 1216 1684 
Q 1288 966 1544 592 
Q 1800 219 2222 219 
Q 2584 219 2820 480 
Q 3056 741 3138 1234 
L 3553 1234 
z
" id="DejaVuSerif-20ac" transform="scale(0.015625)"/>
       <path d="M 1656 4666 
L 2156 4666 
L 500 -594 
L 0 -594 
L 1656 4666 
z
" id="DejaVuSerif-2f" transform="scale(0.015625)"/>
       <path d="M 1831 0 
L 219 0 
L 219 331 
L 738 331 
L 738 4531 
L 184 4531 
L 184 4863 
L 1313 4863 
L 1313 1697 
L 2713 2988 
L 2234 2988 
L 2234 3322 
L 3738 3322 
L 3738 2988 
L 3169 2988 
L 2181 2075 
L 3444 331 
L 3922 331 
L 3922 0 
L 2284 0 
L 2284 331 
L 2759 331 
L 1766 1697 
L 1313 1275 
L 1313 331 
L 1831 331 
L 1831 0 
z
" id="DejaVuSerif-6b" transform="scale(0.015625)"/>
       <path d="M 4878 0 
L 4366 0 
L 3297 3794 
L 2228 0 
L 1716 0 
L 494 4331 
L 31 4331 
L 31 4666 
L 1734 4666 
L 1734 4331 
L 1153 4331 
L 2125 884 
L 3188 4666 
L 3694 4666 
L 4775 844 
L 5753 4331 
L 5216 4331 
L 5216 4666 
L 6559 4666 
L 6559 4331 
L 6100 4331 
L 4878 0 
z
" id="DejaVuSerif-57" transform="scale(0.015625)"/>
       <path d="M 263 0 
L 263 331 
L 781 331 
L 781 4531 
L 231 4531 
L 231 4863 
L 1356 4863 
L 1356 2731 
Q 1516 3069 1770 3241 
Q 2025 3413 2363 3413 
Q 2913 3413 3172 3097 
Q 3431 2781 3431 2113 
L 3431 331 
L 3944 331 
L 3944 0 
L 2356 0 
L 2356 331 
L 2853 331 
L 2853 1931 
Q 2853 2541 2704 2764 
Q 2556 2988 2175 2988 
Q 1775 2988 1565 2697 
Q 1356 2406 1356 1850 
L 1356 331 
L 1856 331 
L 1856 0 
L 263 0 
z
" id="DejaVuSerif-68" transform="scale(0.015625)"/>
       <path d="M 1947 4863 
L 1947 -844 
L 494 -844 
L 494 -513 
L 1350 -513 
L 1350 4531 
L 494 4531 
L 494 4863 
L 1947 4863 
z
" id="DejaVuSerif-5d" transform="scale(0.015625)"/>
      </defs>
      <use xlink:href="#DejaVuSerif-50"/>
      <use x="67.285156" xlink:href="#DejaVuSerif-72"/>
      <use x="115.087891" xlink:href="#DejaVuSerif-69"/>
      <use x="147.070312" xlink:href="#DejaVuSerif-63"/>
      <use x="203.076172" xlink:href="#DejaVuSerif-65"/>
      <use x="262.255859" xlink:href="#DejaVuSerif-20"/>
      <use x="294.042969" xlink:href="#DejaVuSerif-5b"/>
      <use x="333.056641" xlink:href="#DejaVuSerif-20ac"/>
      <use x="396.679688" xlink:href="#DejaVuSerif-2f"/>
      <use x="430.371094" xlink:href="#DejaVuSerif-6b"/>
      <use x="490.966797" xlink:href="#DejaVuSerif-57"/>
      <use x="593.75" xlink:href="#DejaVuSerif-68"/>
      <use x="658.154297" xlink:href="#DejaVuSerif-5d"/>
     </g>
    </g>
   </g>
   <g id="line2d_41">
    <path clip-path="url(#p946c21a5b9)" d="M 45.790625 43.352541 
L 55.679737 43.352541 
L 55.679737 53.272337 
L 66.981579 53.272337 
L 66.981579 55.752286 
L 78.283421 55.752286 
L 78.283421 58.586514 
L 89.585263 58.586514 
L 89.585263 59.29507 
L 100.887105 59.29507 
L 100.887105 59.117931 
L 112.188947 59.117931 
L 112.188947 59.47221 
L 123.490789 59.47221 
L 123.490789 58.586514 
L 134.792632 58.586514 
L 134.792632 59.47221 
L 157.396316 59.47221 
L 157.396316 59.826488 
L 168.698158 59.826488 
L 168.698158 63.90069 
L 180 63.90069 
L 180 67.974892 
L 191.301842 67.974892 
L 191.301842 70.63198 
L 202.603684 70.63198 
L 202.603684 69.037727 
L 213.905526 69.037727 
L 213.905526 66.557778 
L 225.207368 66.557778 
L 225.207368 60.712184 
L 236.509211 60.712184 
L 236.509211 57.523678 
L 247.811053 57.523678 
L 247.811053 50.792388 
L 259.112895 50.792388 
L 259.112895 39.455478 
L 270.414737 39.455478 
L 270.414737 37.152668 
L 281.716579 37.152668 
L 281.716579 36.266972 
L 293.018421 36.266972 
L 293.018421 32.015631 
L 304.320263 32.015631 
L 304.320263 38.569782 
L 314.209375 38.569782 
L 314.209375 38.569782 
" style="fill:none;stroke:#0000ff;stroke-dasharray:3.7,1.6;stroke-dashoffset:0;"/>
   </g>
   <g id="patch_3">
    <path d="M 45.790625 72.279375 
L 45.790625 28.437419 
" style="fill:none;stroke:#000000;stroke-linecap:square;stroke-linejoin:miter;stroke-width:0.4;"/>
   </g>
   <g id="patch_4">
    <path d="M 314.209375 72.279375 
L 314.209375 28.437419 
" style="fill:none;stroke:#000000;stroke-linecap:square;stroke-linejoin:miter;stroke-width:0.4;"/>
   </g>
   <g id="patch_5">
    <path d="M 45.790625 72.279375 
L 314.209375 72.279375 
" style="fill:none;stroke:#000000;stroke-linecap:square;stroke-linejoin:miter;stroke-width:0.4;"/>
   </g>
   <g id="patch_6">
    <path d="M 45.790625 28.437419 
L 314.209375 28.437419 
" style="fill:none;stroke:#000000;stroke-linecap:square;stroke-linejoin:miter;stroke-width:0.4;"/>
   </g>
   <g id="legend_1">
    <g id="patch_7">
     <path d="M 50.690625 24.06058 
L 116.8275 24.06058 
Q 118.2275 24.06058 118.2275 22.66058 
L 118.2275 12.986361 
Q 118.2275 11.586361 116.8275 11.586361 
L 50.690625 11.586361 
Q 49.290625 11.586361 49.290625 12.986361 
L 49.290625 22.66058 
Q 49.290625 24.06058 50.690625 24.06058 
z
" style="fill:#ffffff;opacity:0.8;stroke:#cccccc;stroke-linejoin:miter;stroke-width:0.4;"/>
    </g>
    <g id="line2d_42">
     <path d="M 52.090625 17.255267 
L 73.090625 17.255267 
" style="fill:none;stroke:#0000ff;stroke-dasharray:3.7,1.6;stroke-dashoffset:0;"/>
    </g>
    <g id="line2d_43"/>
    <g id="text_17">
     <!-- Electricity -->
     <g transform="translate(78.690625 19.705267)scale(0.07 -0.07)">
      <defs>
       <path d="M 353 0 
L 353 331 
L 947 331 
L 947 4331 
L 353 4331 
L 353 4666 
L 4109 4666 
L 4109 3628 
L 3725 3628 
L 3725 4281 
L 1581 4281 
L 1581 2719 
L 3109 2719 
L 3109 3303 
L 3494 3303 
L 3494 1753 
L 3109 1753 
L 3109 2338 
L 1581 2338 
L 1581 384 
L 3775 384 
L 3775 1038 
L 4159 1038 
L 4159 0 
L 353 0 
z
" id="DejaVuSerif-45" transform="scale(0.015625)"/>
       <path d="M 1313 331 
L 1856 331 
L 1856 0 
L 184 0 
L 184 331 
L 738 331 
L 738 4531 
L 184 4531 
L 184 4863 
L 1313 4863 
L 1313 331 
z
" id="DejaVuSerif-6c" transform="scale(0.015625)"/>
       <path d="M 691 2988 
L 184 2988 
L 184 3322 
L 691 3322 
L 691 4353 
L 1269 4353 
L 1269 3322 
L 2350 3322 
L 2350 2988 
L 1269 2988 
L 1269 878 
Q 1269 456 1350 337 
Q 1431 219 1650 219 
Q 1875 219 1978 351 
Q 2081 484 2088 781 
L 2522 781 
Q 2497 328 2275 118 
Q 2053 -91 1600 -91 
Q 1103 -91 897 129 
Q 691 350 691 878 
L 691 2988 
z
" id="DejaVuSerif-74" transform="scale(0.015625)"/>
       <path d="M 1381 -609 
L 1600 -56 
L 359 2988 
L -19 2988 
L -19 3322 
L 1509 3322 
L 1509 2988 
L 978 2988 
L 1913 703 
L 2847 2988 
L 2350 2988 
L 2350 3322 
L 3597 3322 
L 3597 2988 
L 3225 2988 
L 1703 -750 
Q 1547 -1138 1356 -1280 
Q 1166 -1422 819 -1422 
Q 672 -1422 517 -1397 
Q 363 -1372 206 -1325 
L 206 -691 
L 500 -691 
Q 519 -903 608 -995 
Q 697 -1088 884 -1088 
Q 1056 -1088 1161 -992 
Q 1266 -897 1381 -609 
z
" id="DejaVuSerif-79" transform="scale(0.015625)"/>
      </defs>
      <use xlink:href="#DejaVuSerif-45"/>
      <use x="72.998047" xlink:href="#DejaVuSerif-6c"/>
      <use x="104.980469" xlink:href="#DejaVuSerif-65"/>
      <use x="164.160156" xlink:href="#DejaVuSerif-63"/>
      <use x="220.166016" xlink:href="#DejaVuSerif-74"/>
      <use x="260.351562" xlink:href="#DejaVuSerif-72"/>
      <use x="308.154297" xlink:href="#DejaVuSerif-69"/>
      <use x="340.136719" xlink:href="#DejaVuSerif-63"/>
      <use x="396.142578" xlink:href="#DejaVuSerif-69"/>
      <use x="428.125" xlink:href="#DejaVuSerif-74"/>
      <use x="468.310547" xlink:href="#DejaVuSerif-79"/>
     </g>
    </g>
   </g>
  </g>
  <g id="axes_2">
   <g id="matplotlib.axis_3">
    <g id="ytick_3">
     <g id="line2d_44">
      <defs>
       <path d="M 0 0 
L -3.5 0 
" id="mb2c00dbeb7" style="stroke:#000000;stroke-width:0.4;"/>
      </defs>
      <g>
       <use style="stroke:#000000;stroke-width:0.4;" x="314.209375" xlink:href="#mb2c00dbeb7" y="65.476313"/>
      </g>
     </g>
     <g id="text_18">
      <!-- 1.4 -->
      <g style="fill:#008000;" transform="translate(317.709375 68.515688)scale(0.08 -0.08)">
       <use xlink:href="#DejaVuSerif-31"/>
       <use x="63.623047" xlink:href="#DejaVuSerif-2e"/>
       <use x="95.410156" xlink:href="#DejaVuSerif-34"/>
      </g>
     </g>
    </g>
    <g id="ytick_4">
     <g id="line2d_45">
      <g>
       <use style="stroke:#000000;stroke-width:0.4;" x="314.209375" xlink:href="#mb2c00dbeb7" y="35.240481"/>
      </g>
     </g>
     <g id="text_19">
      <!-- 1.5 -->
      <g style="fill:#008000;" transform="translate(317.709375 38.279856)scale(0.08 -0.08)">
       <defs>
        <path d="M 3219 4666 
L 3219 4153 
L 1081 4153 
L 1081 2816 
Q 1244 2928 1461 2984 
Q 1678 3041 1947 3041 
Q 2703 3041 3140 2622 
Q 3578 2203 3578 1478 
Q 3578 738 3136 323 
Q 2694 -91 1894 -91 
Q 1572 -91 1234 -12 
Q 897 66 544 225 
L 544 1131 
L 897 1131 
Q 925 688 1179 453 
Q 1434 219 1894 219 
Q 2388 219 2653 544 
Q 2919 869 2919 1478 
Q 2919 2084 2655 2407 
Q 2391 2731 1894 2731 
Q 1613 2731 1398 2631 
Q 1184 2531 1019 2322 
L 750 2322 
L 750 4666 
L 3219 4666 
z
" id="DejaVuSerif-35" transform="scale(0.015625)"/>
       </defs>
       <use xlink:href="#DejaVuSerif-31"/>
       <use x="63.623047" xlink:href="#DejaVuSerif-2e"/>
       <use x="95.410156" xlink:href="#DejaVuSerif-35"/>
      </g>
     </g>
    </g>
    <g id="text_20">
     <!-- Price [€/m3] -->
     <g style="fill:#008000;" transform="translate(342.030312 81.749803)rotate(-90)scale(0.1 -0.1)">
      <defs>
       <path d="M 622 4469 
Q 988 4606 1323 4678 
Q 1659 4750 1953 4750 
Q 2638 4750 3022 4454 
Q 3406 4159 3406 3634 
Q 3406 3213 3140 2930 
Q 2875 2647 2388 2547 
Q 2963 2466 3280 2130 
Q 3597 1794 3597 1259 
Q 3597 606 3158 257 
Q 2719 -91 1894 -91 
Q 1528 -91 1179 -12 
Q 831 66 488 225 
L 488 1131 
L 838 1131 
Q 869 681 1141 450 
Q 1413 219 1906 219 
Q 2384 219 2661 495 
Q 2938 772 2938 1253 
Q 2938 1803 2653 2086 
Q 2369 2369 1819 2369 
L 1522 2369 
L 1522 2688 
L 1678 2688 
Q 2225 2688 2498 2914 
Q 2772 3141 2772 3597 
Q 2772 4006 2547 4223 
Q 2322 4441 1900 4441 
Q 1478 4441 1245 4241 
Q 1013 4041 972 3647 
L 622 3647 
L 622 4469 
z
" id="DejaVuSerif-33" transform="scale(0.015625)"/>
      </defs>
      <use xlink:href="#DejaVuSerif-50"/>
      <use x="67.285156" xlink:href="#DejaVuSerif-72"/>
      <use x="115.087891" xlink:href="#DejaVuSerif-69"/>
      <use x="147.070312" xlink:href="#DejaVuSerif-63"/>
      <use x="203.076172" xlink:href="#DejaVuSerif-65"/>
      <use x="262.255859" xlink:href="#DejaVuSerif-20"/>
      <use x="294.042969" xlink:href="#DejaVuSerif-5b"/>
      <use x="333.056641" xlink:href="#DejaVuSerif-20ac"/>
      <use x="396.679688" xlink:href="#DejaVuSerif-2f"/>
      <use x="430.371094" xlink:href="#DejaVuSerif-6d"/>
      <use x="525.195312" xlink:href="#DejaVuSerif-33"/>
      <use x="588.818359" xlink:href="#DejaVuSerif-5d"/>
     </g>
    </g>
   </g>
   <g id="line2d_46">
    <path clip-path="url(#p946c21a5b9)" d="M 45.790625 50.358397 
L 314.209375 50.358397 
L 314.209375 50.358397 
" style="fill:none;stroke:#008000;stroke-dasharray:3.7,1.6;stroke-dashoffset:0;"/>
   </g>
   <g id="patch_8">
    <path d="M 45.790625 72.279375 
L 45.790625 28.437419 
" style="fill:none;stroke:#000000;stroke-linecap:square;stroke-linejoin:miter;stroke-width:0.4;"/>
   </g>
   <g id="patch_9">
    <path d="M 314.209375 72.279375 
L 314.209375 28.437419 
" style="fill:none;stroke:#000000;stroke-linecap:square;stroke-linejoin:miter;stroke-width:0.4;"/>
   </g>
   <g id="patch_10">
    <path d="M 45.790625 72.279375 
L 314.209375 72.279375 
" style="fill:none;stroke:#000000;stroke-linecap:square;stroke-linejoin:miter;stroke-width:0.4;"/>
   </g>
   <g id="patch_11">
    <path d="M 45.790625 28.437419 
L 314.209375 28.437419 
" style="fill:none;stroke:#000000;stroke-linecap:square;stroke-linejoin:miter;stroke-width:0.4;"/>
   </g>
   <g id="legend_2">
    <g id="patch_12">
     <path d="M 266.551406 24.06058 
L 309.309375 24.06058 
Q 310.709375 24.06058 310.709375 22.66058 
L 310.709375 13.085892 
Q 310.709375 11.685892 309.309375 11.685892 
L 266.551406 11.685892 
Q 265.151406 11.685892 265.151406 13.085892 
L 265.151406 22.66058 
Q 265.151406 24.06058 266.551406 24.06058 
z
" style="fill:#ffffff;opacity:0.8;stroke:#cccccc;stroke-linejoin:miter;stroke-width:0.4;"/>
    </g>
    <g id="line2d_47">
     <path d="M 267.951406 17.354798 
L 288.951406 17.354798 
" style="fill:none;stroke:#008000;stroke-dasharray:3.7,1.6;stroke-dashoffset:0;"/>
    </g>
    <g id="line2d_48"/>
    <g id="text_21">
     <!-- Gas -->
     <g transform="translate(294.551406 19.804798)scale(0.07 -0.07)">
      <defs>
       <path d="M 4097 3272 
Q 3988 3856 3641 4136 
Q 3294 4416 2675 4416 
Q 1869 4416 1472 3897 
Q 1075 3378 1075 2328 
Q 1075 1300 1484 772 
Q 1894 244 2688 244 
Q 3041 244 3362 331 
Q 3684 419 3975 594 
L 3975 1797 
L 3097 1797 
L 3097 2131 
L 4609 2131 
L 4609 391 
Q 4194 150 3714 29 
Q 3234 -91 2688 -91 
Q 1631 -91 995 570 
Q 359 1231 359 2328 
Q 359 3434 996 4092 
Q 1634 4750 2713 4750 
Q 3113 4750 3539 4658 
Q 3966 4566 4447 4378 
L 4447 3272 
L 4097 3272 
z
" id="DejaVuSerif-47" transform="scale(0.015625)"/>
       <path d="M 2547 1044 
L 2547 1747 
L 1806 1747 
Q 1378 1747 1168 1562 
Q 959 1378 959 997 
Q 959 650 1171 447 
Q 1384 244 1747 244 
Q 2106 244 2326 466 
Q 2547 688 2547 1044 
z
M 3122 2075 
L 3122 331 
L 3634 331 
L 3634 0 
L 2547 0 
L 2547 359 
Q 2356 128 2106 18 
Q 1856 -91 1522 -91 
Q 969 -91 644 203 
Q 319 497 319 997 
Q 319 1513 691 1797 
Q 1063 2081 1741 2081 
L 2547 2081 
L 2547 2309 
Q 2547 2688 2317 2895 
Q 2088 3103 1672 3103 
Q 1328 3103 1125 2947 
Q 922 2791 872 2484 
L 575 2484 
L 575 3156 
Q 875 3284 1158 3348 
Q 1441 3413 1709 3413 
Q 2400 3413 2761 3070 
Q 3122 2728 3122 2075 
z
" id="DejaVuSerif-61" transform="scale(0.015625)"/>
       <path d="M 359 184 
L 359 959 
L 691 959 
Q 703 588 923 403 
Q 1144 219 1575 219 
Q 1963 219 2166 364 
Q 2369 509 2369 788 
Q 2369 1006 2220 1140 
Q 2072 1275 1594 1428 
L 1178 1569 
Q 750 1706 558 1912 
Q 366 2119 366 2438 
Q 366 2894 700 3153 
Q 1034 3413 1625 3413 
Q 1888 3413 2178 3344 
Q 2469 3275 2778 3144 
L 2778 2419 
L 2447 2419 
Q 2434 2741 2221 2922 
Q 2009 3103 1644 3103 
Q 1281 3103 1095 2975 
Q 909 2847 909 2591 
Q 909 2381 1050 2254 
Q 1191 2128 1613 1997 
L 2069 1856 
Q 2541 1709 2748 1489 
Q 2956 1269 2956 922 
Q 2956 450 2595 179 
Q 2234 -91 1600 -91 
Q 1278 -91 972 -22 
Q 666 47 359 184 
z
" id="DejaVuSerif-73" transform="scale(0.015625)"/>
      </defs>
      <use xlink:href="#DejaVuSerif-47"/>
      <use x="79.882812" xlink:href="#DejaVuSerif-61"/>
      <use x="139.501953" xlink:href="#DejaVuSerif-73"/>
     </g>
    </g>
   </g>
  </g>
 </g>
 <defs>
  <clipPath id="p946c21a5b9">
   <rect height="43.841956" width="268.41875" x="45.790625" y="28.437419"/>
  </clipPath>
 </defs>
</svg>
