<?xml version="1.0" encoding="utf-8" standalone="no"?>
<!DOCTYPE svg PUBLIC "-//W3C//DTD SVG 1.1//EN"
  "http://www.w3.org/Graphics/SVG/1.1/DTD/svg11.dtd">
<svg height="108pt" version="1.1" viewBox="0 0 360 108" width="360pt" xmlns="http://www.w3.org/2000/svg" xmlns:xlink="http://www.w3.org/1999/xlink">
 <metadata>
  <rdf:RDF xmlns:cc="http://creativecommons.org/ns#" xmlns:dc="http://purl.org/dc/elements/1.1/" xmlns:rdf="http://www.w3.org/1999/02/22-rdf-syntax-ns#">
   <cc:Work>
    <dc:type rdf:resource="http://purl.org/dc/dcmitype/StillImage"/>
    <dc:date>2024-01-12T14:29:41.153260</dc:date>
    <dc:format>image/svg+xml</dc:format>
    <dc:creator>
     <cc:Agent>
      <dc:title>Matplotlib v3.4.3, https://matplotlib.org/</dc:title>
     </cc:Agent>
    </dc:creator>
   </cc:Work>
  </rdf:RDF>
 </metadata>
 <defs>
  <style type="text/css">*{stroke-linecap:butt;stroke-linejoin:round;}</style>
 </defs>
 <g id="figure_1">
  <g id="patch_1">
   <path d="M 0 108 
L 360 108 
L 360 0 
L 0 0 
z
" style="fill:#ffffff;"/>
  </g>
  <g id="axes_1">
   <g id="patch_2">
    <path d="M 38.158125 72.279375 
L 319.299375 72.279375 
L 319.299375 28.337887 
L 38.158125 28.337887 
z
" style="fill:#ffffff;"/>
   </g>
   <g id="matplotlib.axis_1">
    <g id="xtick_1">
     <g id="line2d_1">
      <path clip-path="url(#p68e946b707)" d="M 38.158125 72.279375 
L 38.158125 28.337887 
" style="fill:none;stroke:#b0b0b0;stroke-dasharray:0.4,0.66;stroke-dashoffset:0;stroke-width:0.4;"/>
     </g>
     <g id="line2d_2">
      <defs>
       <path d="M 0 0 
L 0 -3.5 
" id="mbc58b0f906" style="stroke:#000000;stroke-width:0.4;"/>
      </defs>
      <g>
       <use style="stroke:#000000;stroke-width:0.4;" x="38.158125" xlink:href="#mbc58b0f906" y="72.279375"/>
      </g>
     </g>
     <g id="line2d_3">
      <defs>
       <path d="M 0 0 
L 0 3.5 
" id="m4512baeba6" style="stroke:#000000;stroke-width:0.4;"/>
      </defs>
      <g>
       <use style="stroke:#000000;stroke-width:0.4;" x="38.158125" xlink:href="#m4512baeba6" y="28.337887"/>
      </g>
     </g>
     <g id="text_1">
      <!-- 00 -->
      <g transform="translate(33.068125 81.858125)scale(0.08 -0.08)">
       <defs>
        <path d="M 2034 219 
Q 2513 219 2750 744 
Q 2988 1269 2988 2328 
Q 2988 3391 2750 3916 
Q 2513 4441 2034 4441 
Q 1556 4441 1318 3916 
Q 1081 3391 1081 2328 
Q 1081 1269 1318 744 
Q 1556 219 2034 219 
z
M 2034 -91 
Q 1275 -91 848 546 
Q 422 1184 422 2328 
Q 422 3475 848 4112 
Q 1275 4750 2034 4750 
Q 2797 4750 3222 4112 
Q 3647 3475 3647 2328 
Q 3647 1184 3222 546 
Q 2797 -91 2034 -91 
z
" id="DejaVuSerif-30" transform="scale(0.015625)"/>
       </defs>
       <use xlink:href="#DejaVuSerif-30"/>
       <use x="63.623047" xlink:href="#DejaVuSerif-30"/>
      </g>
     </g>
    </g>
    <g id="xtick_2">
     <g id="line2d_4">
      <path clip-path="url(#p68e946b707)" d="M 61.833178 72.279375 
L 61.833178 28.337887 
" style="fill:none;stroke:#b0b0b0;stroke-dasharray:0.4,0.66;stroke-dashoffset:0;stroke-width:0.4;"/>
     </g>
     <g id="line2d_5">
      <g>
       <use style="stroke:#000000;stroke-width:0.4;" x="61.833178" xlink:href="#mbc58b0f906" y="72.279375"/>
      </g>
     </g>
     <g id="line2d_6">
      <g>
       <use style="stroke:#000000;stroke-width:0.4;" x="61.833178" xlink:href="#m4512baeba6" y="28.337887"/>
      </g>
     </g>
     <g id="text_2">
      <!-- 02 -->
      <g transform="translate(56.743178 81.858125)scale(0.08 -0.08)">
       <defs>
        <path d="M 819 3553 
L 469 3553 
L 469 4384 
Q 803 4563 1142 4656 
Q 1481 4750 1806 4750 
Q 2534 4750 2956 4397 
Q 3378 4044 3378 3438 
Q 3378 2753 2422 1800 
Q 2347 1728 2309 1691 
L 1131 513 
L 3078 513 
L 3078 1088 
L 3444 1088 
L 3444 0 
L 434 0 
L 434 341 
L 1850 1753 
Q 2319 2222 2519 2614 
Q 2719 3006 2719 3438 
Q 2719 3909 2473 4175 
Q 2228 4441 1797 4441 
Q 1350 4441 1106 4219 
Q 863 3997 819 3553 
z
" id="DejaVuSerif-32" transform="scale(0.015625)"/>
       </defs>
       <use xlink:href="#DejaVuSerif-30"/>
       <use x="63.623047" xlink:href="#DejaVuSerif-32"/>
      </g>
     </g>
    </g>
    <g id="xtick_3">
     <g id="line2d_7">
      <path clip-path="url(#p68e946b707)" d="M 85.50823 72.279375 
L 85.50823 28.337887 
" style="fill:none;stroke:#b0b0b0;stroke-dasharray:0.4,0.66;stroke-dashoffset:0;stroke-width:0.4;"/>
     </g>
     <g id="line2d_8">
      <g>
       <use style="stroke:#000000;stroke-width:0.4;" x="85.50823" xlink:href="#mbc58b0f906" y="72.279375"/>
      </g>
     </g>
     <g id="line2d_9">
      <g>
       <use style="stroke:#000000;stroke-width:0.4;" x="85.50823" xlink:href="#m4512baeba6" y="28.337887"/>
      </g>
     </g>
     <g id="text_3">
      <!-- 04 -->
      <g transform="translate(80.41823 81.858125)scale(0.08 -0.08)">
       <defs>
        <path d="M 2234 1581 
L 2234 4063 
L 641 1581 
L 2234 1581 
z
M 3609 0 
L 1484 0 
L 1484 331 
L 2234 331 
L 2234 1247 
L 197 1247 
L 197 1588 
L 2241 4750 
L 2859 4750 
L 2859 1581 
L 3750 1581 
L 3750 1247 
L 2859 1247 
L 2859 331 
L 3609 331 
L 3609 0 
z
" id="DejaVuSerif-34" transform="scale(0.015625)"/>
       </defs>
       <use xlink:href="#DejaVuSerif-30"/>
       <use x="63.623047" xlink:href="#DejaVuSerif-34"/>
      </g>
     </g>
    </g>
    <g id="xtick_4">
     <g id="line2d_10">
      <path clip-path="url(#p68e946b707)" d="M 109.183283 72.279375 
L 109.183283 28.337887 
" style="fill:none;stroke:#b0b0b0;stroke-dasharray:0.4,0.66;stroke-dashoffset:0;stroke-width:0.4;"/>
     </g>
     <g id="line2d_11">
      <g>
       <use style="stroke:#000000;stroke-width:0.4;" x="109.183283" xlink:href="#mbc58b0f906" y="72.279375"/>
      </g>
     </g>
     <g id="line2d_12">
      <g>
       <use style="stroke:#000000;stroke-width:0.4;" x="109.183283" xlink:href="#m4512baeba6" y="28.337887"/>
      </g>
     </g>
     <g id="text_4">
      <!-- 06 -->
      <g transform="translate(104.093283 81.858125)scale(0.08 -0.08)">
       <defs>
        <path d="M 2094 219 
Q 2534 219 2771 542 
Q 3009 866 3009 1472 
Q 3009 2078 2771 2401 
Q 2534 2725 2094 2725 
Q 1647 2725 1412 2412 
Q 1178 2100 1178 1509 
Q 1178 888 1415 553 
Q 1653 219 2094 219 
z
M 1075 2569 
Q 1288 2803 1556 2918 
Q 1825 3034 2163 3034 
Q 2859 3034 3264 2615 
Q 3669 2197 3669 1472 
Q 3669 763 3233 336 
Q 2797 -91 2069 -91 
Q 1278 -91 853 498 
Q 428 1088 428 2181 
Q 428 3406 931 4078 
Q 1434 4750 2350 4750 
Q 2597 4750 2869 4703 
Q 3141 4656 3425 4563 
L 3425 3794 
L 3072 3794 
Q 3034 4109 2831 4275 
Q 2628 4441 2284 4441 
Q 1678 4441 1381 3981 
Q 1084 3522 1075 2569 
z
" id="DejaVuSerif-36" transform="scale(0.015625)"/>
       </defs>
       <use xlink:href="#DejaVuSerif-30"/>
       <use x="63.623047" xlink:href="#DejaVuSerif-36"/>
      </g>
     </g>
    </g>
    <g id="xtick_5">
     <g id="line2d_13">
      <path clip-path="url(#p68e946b707)" d="M 132.858336 72.279375 
L 132.858336 28.337887 
" style="fill:none;stroke:#b0b0b0;stroke-dasharray:0.4,0.66;stroke-dashoffset:0;stroke-width:0.4;"/>
     </g>
     <g id="line2d_14">
      <g>
       <use style="stroke:#000000;stroke-width:0.4;" x="132.858336" xlink:href="#mbc58b0f906" y="72.279375"/>
      </g>
     </g>
     <g id="line2d_15">
      <g>
       <use style="stroke:#000000;stroke-width:0.4;" x="132.858336" xlink:href="#m4512baeba6" y="28.337887"/>
      </g>
     </g>
     <g id="text_5">
      <!-- 08 -->
      <g transform="translate(127.768336 81.858125)scale(0.08 -0.08)">
       <defs>
        <path d="M 2981 1275 
Q 2981 1775 2732 2051 
Q 2484 2328 2034 2328 
Q 1584 2328 1336 2051 
Q 1088 1775 1088 1275 
Q 1088 772 1336 495 
Q 1584 219 2034 219 
Q 2484 219 2732 495 
Q 2981 772 2981 1275 
z
M 2853 3541 
Q 2853 3966 2637 4203 
Q 2422 4441 2034 4441 
Q 1650 4441 1433 4203 
Q 1216 3966 1216 3541 
Q 1216 3113 1433 2875 
Q 1650 2638 2034 2638 
Q 2422 2638 2637 2875 
Q 2853 3113 2853 3541 
z
M 2516 2484 
Q 3047 2413 3344 2092 
Q 3641 1772 3641 1275 
Q 3641 619 3225 264 
Q 2809 -91 2034 -91 
Q 1263 -91 845 264 
Q 428 619 428 1275 
Q 428 1772 725 2092 
Q 1022 2413 1556 2484 
Q 1084 2569 832 2842 
Q 581 3116 581 3541 
Q 581 4103 968 4426 
Q 1356 4750 2034 4750 
Q 2713 4750 3100 4426 
Q 3488 4103 3488 3541 
Q 3488 3116 3236 2842 
Q 2984 2569 2516 2484 
z
" id="DejaVuSerif-38" transform="scale(0.015625)"/>
       </defs>
       <use xlink:href="#DejaVuSerif-30"/>
       <use x="63.623047" xlink:href="#DejaVuSerif-38"/>
      </g>
     </g>
    </g>
    <g id="xtick_6">
     <g id="line2d_16">
      <path clip-path="url(#p68e946b707)" d="M 156.533388 72.279375 
L 156.533388 28.337887 
" style="fill:none;stroke:#b0b0b0;stroke-dasharray:0.4,0.66;stroke-dashoffset:0;stroke-width:0.4;"/>
     </g>
     <g id="line2d_17">
      <g>
       <use style="stroke:#000000;stroke-width:0.4;" x="156.533388" xlink:href="#mbc58b0f906" y="72.279375"/>
      </g>
     </g>
     <g id="line2d_18">
      <g>
       <use style="stroke:#000000;stroke-width:0.4;" x="156.533388" xlink:href="#m4512baeba6" y="28.337887"/>
      </g>
     </g>
     <g id="text_6">
      <!-- 10 -->
      <g transform="translate(151.443388 81.858125)scale(0.08 -0.08)">
       <defs>
        <path d="M 909 0 
L 909 331 
L 1722 331 
L 1722 4213 
L 781 3603 
L 781 4013 
L 1919 4750 
L 2350 4750 
L 2350 331 
L 3163 331 
L 3163 0 
L 909 0 
z
" id="DejaVuSerif-31" transform="scale(0.015625)"/>
       </defs>
       <use xlink:href="#DejaVuSerif-31"/>
       <use x="63.623047" xlink:href="#DejaVuSerif-30"/>
      </g>
     </g>
    </g>
    <g id="xtick_7">
     <g id="line2d_19">
      <path clip-path="url(#p68e946b707)" d="M 180.208441 72.279375 
L 180.208441 28.337887 
" style="fill:none;stroke:#b0b0b0;stroke-dasharray:0.4,0.66;stroke-dashoffset:0;stroke-width:0.4;"/>
     </g>
     <g id="line2d_20">
      <g>
       <use style="stroke:#000000;stroke-width:0.4;" x="180.208441" xlink:href="#mbc58b0f906" y="72.279375"/>
      </g>
     </g>
     <g id="line2d_21">
      <g>
       <use style="stroke:#000000;stroke-width:0.4;" x="180.208441" xlink:href="#m4512baeba6" y="28.337887"/>
      </g>
     </g>
     <g id="text_7">
      <!-- 12 -->
      <g transform="translate(175.118441 81.858125)scale(0.08 -0.08)">
       <use xlink:href="#DejaVuSerif-31"/>
       <use x="63.623047" xlink:href="#DejaVuSerif-32"/>
      </g>
     </g>
    </g>
    <g id="xtick_8">
     <g id="line2d_22">
      <path clip-path="url(#p68e946b707)" d="M 203.883493 72.279375 
L 203.883493 28.337887 
" style="fill:none;stroke:#b0b0b0;stroke-dasharray:0.4,0.66;stroke-dashoffset:0;stroke-width:0.4;"/>
     </g>
     <g id="line2d_23">
      <g>
       <use style="stroke:#000000;stroke-width:0.4;" x="203.883493" xlink:href="#mbc58b0f906" y="72.279375"/>
      </g>
     </g>
     <g id="line2d_24">
      <g>
       <use style="stroke:#000000;stroke-width:0.4;" x="203.883493" xlink:href="#m4512baeba6" y="28.337887"/>
      </g>
     </g>
     <g id="text_8">
      <!-- 14 -->
      <g transform="translate(198.793493 81.858125)scale(0.08 -0.08)">
       <use xlink:href="#DejaVuSerif-31"/>
       <use x="63.623047" xlink:href="#DejaVuSerif-34"/>
      </g>
     </g>
    </g>
    <g id="xtick_9">
     <g id="line2d_25">
      <path clip-path="url(#p68e946b707)" d="M 227.558546 72.279375 
L 227.558546 28.337887 
" style="fill:none;stroke:#b0b0b0;stroke-dasharray:0.4,0.66;stroke-dashoffset:0;stroke-width:0.4;"/>
     </g>
     <g id="line2d_26">
      <g>
       <use style="stroke:#000000;stroke-width:0.4;" x="227.558546" xlink:href="#mbc58b0f906" y="72.279375"/>
      </g>
     </g>
     <g id="line2d_27">
      <g>
       <use style="stroke:#000000;stroke-width:0.4;" x="227.558546" xlink:href="#m4512baeba6" y="28.337887"/>
      </g>
     </g>
     <g id="text_9">
      <!-- 16 -->
      <g transform="translate(222.468546 81.858125)scale(0.08 -0.08)">
       <use xlink:href="#DejaVuSerif-31"/>
       <use x="63.623047" xlink:href="#DejaVuSerif-36"/>
      </g>
     </g>
    </g>
    <g id="xtick_10">
     <g id="line2d_28">
      <path clip-path="url(#p68e946b707)" d="M 251.233599 72.279375 
L 251.233599 28.337887 
" style="fill:none;stroke:#b0b0b0;stroke-dasharray:0.4,0.66;stroke-dashoffset:0;stroke-width:0.4;"/>
     </g>
     <g id="line2d_29">
      <g>
       <use style="stroke:#000000;stroke-width:0.4;" x="251.233599" xlink:href="#mbc58b0f906" y="72.279375"/>
      </g>
     </g>
     <g id="line2d_30">
      <g>
       <use style="stroke:#000000;stroke-width:0.4;" x="251.233599" xlink:href="#m4512baeba6" y="28.337887"/>
      </g>
     </g>
     <g id="text_10">
      <!-- 18 -->
      <g transform="translate(246.143599 81.858125)scale(0.08 -0.08)">
       <use xlink:href="#DejaVuSerif-31"/>
       <use x="63.623047" xlink:href="#DejaVuSerif-38"/>
      </g>
     </g>
    </g>
    <g id="xtick_11">
     <g id="line2d_31">
      <path clip-path="url(#p68e946b707)" d="M 274.908651 72.279375 
L 274.908651 28.337887 
" style="fill:none;stroke:#b0b0b0;stroke-dasharray:0.4,0.66;stroke-dashoffset:0;stroke-width:0.4;"/>
     </g>
     <g id="line2d_32">
      <g>
       <use style="stroke:#000000;stroke-width:0.4;" x="274.908651" xlink:href="#mbc58b0f906" y="72.279375"/>
      </g>
     </g>
     <g id="line2d_33">
      <g>
       <use style="stroke:#000000;stroke-width:0.4;" x="274.908651" xlink:href="#m4512baeba6" y="28.337887"/>
      </g>
     </g>
     <g id="text_11">
      <!-- 20 -->
      <g transform="translate(269.818651 81.858125)scale(0.08 -0.08)">
       <use xlink:href="#DejaVuSerif-32"/>
       <use x="63.623047" xlink:href="#DejaVuSerif-30"/>
      </g>
     </g>
    </g>
    <g id="xtick_12">
     <g id="line2d_34">
      <path clip-path="url(#p68e946b707)" d="M 298.583704 72.279375 
L 298.583704 28.337887 
" style="fill:none;stroke:#b0b0b0;stroke-dasharray:0.4,0.66;stroke-dashoffset:0;stroke-width:0.4;"/>
     </g>
     <g id="line2d_35">
      <g>
       <use style="stroke:#000000;stroke-width:0.4;" x="298.583704" xlink:href="#mbc58b0f906" y="72.279375"/>
      </g>
     </g>
     <g id="line2d_36">
      <g>
       <use style="stroke:#000000;stroke-width:0.4;" x="298.583704" xlink:href="#m4512baeba6" y="28.337887"/>
      </g>
     </g>
     <g id="text_12">
      <!-- 22 -->
      <g transform="translate(293.493704 81.858125)scale(0.08 -0.08)">
       <use xlink:href="#DejaVuSerif-32"/>
       <use x="63.623047" xlink:href="#DejaVuSerif-32"/>
      </g>
     </g>
    </g>
    <g id="text_13">
     <!-- Time -->
     <g transform="translate(166.093594 95.120312)scale(0.1 -0.1)">
      <defs>
       <path d="M 1222 0 
L 1222 331 
L 1819 331 
L 1819 4294 
L 447 4294 
L 447 3566 
L 63 3566 
L 63 4666 
L 4206 4666 
L 4206 3566 
L 3822 3566 
L 3822 4294 
L 2450 4294 
L 2450 331 
L 3047 331 
L 3047 0 
L 1222 0 
z
" id="DejaVuSerif-54" transform="scale(0.015625)"/>
       <path d="M 622 4353 
Q 622 4497 726 4603 
Q 831 4709 978 4709 
Q 1122 4709 1226 4603 
Q 1331 4497 1331 4353 
Q 1331 4206 1228 4103 
Q 1125 4000 978 4000 
Q 831 4000 726 4103 
Q 622 4206 622 4353 
z
M 1356 331 
L 1900 331 
L 1900 0 
L 231 0 
L 231 331 
L 781 331 
L 781 2988 
L 231 2988 
L 231 3322 
L 1356 3322 
L 1356 331 
z
" id="DejaVuSerif-69" transform="scale(0.015625)"/>
       <path d="M 3316 2675 
Q 3481 3041 3739 3227 
Q 3997 3413 4341 3413 
Q 4863 3413 5119 3089 
Q 5375 2766 5375 2113 
L 5375 331 
L 5894 331 
L 5894 0 
L 4300 0 
L 4300 331 
L 4800 331 
L 4800 2047 
Q 4800 2556 4650 2772 
Q 4500 2988 4153 2988 
Q 3769 2988 3567 2697 
Q 3366 2406 3366 1850 
L 3366 331 
L 3866 331 
L 3866 0 
L 2291 0 
L 2291 331 
L 2791 331 
L 2791 2069 
Q 2791 2566 2641 2777 
Q 2491 2988 2144 2988 
Q 1759 2988 1557 2697 
Q 1356 2406 1356 1850 
L 1356 331 
L 1856 331 
L 1856 0 
L 263 0 
L 263 331 
L 781 331 
L 781 2994 
L 231 2994 
L 231 3322 
L 1356 3322 
L 1356 2731 
Q 1516 3063 1762 3238 
Q 2009 3413 2322 3413 
Q 2709 3413 2968 3220 
Q 3228 3028 3316 2675 
z
" id="DejaVuSerif-6d" transform="scale(0.015625)"/>
       <path d="M 3469 1600 
L 991 1600 
L 991 1575 
Q 991 903 1244 561 
Q 1497 219 1991 219 
Q 2369 219 2611 417 
Q 2853 616 2950 1006 
L 3413 1006 
Q 3275 459 2904 184 
Q 2534 -91 1931 -91 
Q 1203 -91 761 389 
Q 319 869 319 1663 
Q 319 2450 753 2931 
Q 1188 3413 1894 3413 
Q 2647 3413 3050 2948 
Q 3453 2484 3469 1600 
z
M 2791 1931 
Q 2772 2513 2545 2808 
Q 2319 3103 1894 3103 
Q 1497 3103 1269 2806 
Q 1041 2509 991 1931 
L 2791 1931 
z
" id="DejaVuSerif-65" transform="scale(0.015625)"/>
      </defs>
      <use xlink:href="#DejaVuSerif-54"/>
      <use x="66.699219" xlink:href="#DejaVuSerif-69"/>
      <use x="98.681641" xlink:href="#DejaVuSerif-6d"/>
      <use x="193.505859" xlink:href="#DejaVuSerif-65"/>
     </g>
    </g>
   </g>
   <g id="matplotlib.axis_2">
    <g id="ytick_1">
     <g id="line2d_37">
      <path clip-path="url(#p68e946b707)" d="M 38.158125 72.279375 
L 319.299375 72.279375 
" style="fill:none;stroke:#b0b0b0;stroke-dasharray:0.4,0.66;stroke-dashoffset:0;stroke-width:0.4;"/>
     </g>
     <g id="line2d_38">
      <defs>
       <path d="M 0 0 
L 3.5 0 
" id="mc23bc9c7e8" style="stroke:#000000;stroke-width:0.4;"/>
      </defs>
      <g>
       <use style="stroke:#000000;stroke-width:0.4;" x="38.158125" xlink:href="#mc23bc9c7e8" y="72.279375"/>
      </g>
     </g>
     <g id="text_14">
      <!-- 0 -->
      <g transform="translate(29.568125 75.31875)scale(0.08 -0.08)">
       <use xlink:href="#DejaVuSerif-30"/>
      </g>
     </g>
    </g>
    <g id="ytick_2">
     <g id="line2d_39">
      <path clip-path="url(#p68e946b707)" d="M 38.158125 34.234797 
L 319.299375 34.234797 
" style="fill:none;stroke:#b0b0b0;stroke-dasharray:0.4,0.66;stroke-dashoffset:0;stroke-width:0.4;"/>
     </g>
     <g id="line2d_40">
      <g>
       <use style="stroke:#000000;stroke-width:0.4;" x="38.158125" xlink:href="#mc23bc9c7e8" y="34.234797"/>
      </g>
     </g>
     <g id="text_15">
      <!-- 20 -->
      <g transform="translate(24.478125 37.274172)scale(0.08 -0.08)">
       <use xlink:href="#DejaVuSerif-32"/>
       <use x="63.623047" xlink:href="#DejaVuSerif-30"/>
      </g>
     </g>
    </g>
    <g id="text_16">
     <!-- Temperature [°C] -->
     <g transform="translate(18.398437 94.883631)rotate(-90)scale(0.1 -0.1)">
      <defs>
       <path d="M 1313 1825 
L 1313 1497 
Q 1313 897 1542 583 
Q 1772 269 2209 269 
Q 2650 269 2876 622 
Q 3103 975 3103 1663 
Q 3103 2353 2876 2703 
Q 2650 3053 2209 3053 
Q 1772 3053 1542 2737 
Q 1313 2422 1313 1825 
z
M 738 2988 
L 184 2988 
L 184 3322 
L 1313 3322 
L 1313 2803 
Q 1481 3116 1742 3264 
Q 2003 3413 2388 3413 
Q 3000 3413 3387 2928 
Q 3775 2444 3775 1663 
Q 3775 881 3387 395 
Q 3000 -91 2388 -91 
Q 2003 -91 1742 57 
Q 1481 206 1313 519 
L 1313 -997 
L 1856 -997 
L 1856 -1331 
L 184 -1331 
L 184 -997 
L 738 -997 
L 738 2988 
z
" id="DejaVuSerif-70" transform="scale(0.015625)"/>
       <path d="M 3059 3328 
L 3059 2497 
L 2728 2497 
Q 2713 2744 2591 2866 
Q 2469 2988 2234 2988 
Q 1809 2988 1582 2694 
Q 1356 2400 1356 1850 
L 1356 331 
L 2022 331 
L 2022 0 
L 263 0 
L 263 331 
L 781 331 
L 781 2994 
L 231 2994 
L 231 3322 
L 1356 3322 
L 1356 2731 
Q 1525 3078 1790 3245 
Q 2056 3413 2438 3413 
Q 2578 3413 2733 3391 
Q 2888 3369 3059 3328 
z
" id="DejaVuSerif-72" transform="scale(0.015625)"/>
       <path d="M 2547 1044 
L 2547 1747 
L 1806 1747 
Q 1378 1747 1168 1562 
Q 959 1378 959 997 
Q 959 650 1171 447 
Q 1384 244 1747 244 
Q 2106 244 2326 466 
Q 2547 688 2547 1044 
z
M 3122 2075 
L 3122 331 
L 3634 331 
L 3634 0 
L 2547 0 
L 2547 359 
Q 2356 128 2106 18 
Q 1856 -91 1522 -91 
Q 969 -91 644 203 
Q 319 497 319 997 
Q 319 1513 691 1797 
Q 1063 2081 1741 2081 
L 2547 2081 
L 2547 2309 
Q 2547 2688 2317 2895 
Q 2088 3103 1672 3103 
Q 1328 3103 1125 2947 
Q 922 2791 872 2484 
L 575 2484 
L 575 3156 
Q 875 3284 1158 3348 
Q 1441 3413 1709 3413 
Q 2400 3413 2761 3070 
Q 3122 2728 3122 2075 
z
" id="DejaVuSerif-61" transform="scale(0.015625)"/>
       <path d="M 691 2988 
L 184 2988 
L 184 3322 
L 691 3322 
L 691 4353 
L 1269 4353 
L 1269 3322 
L 2350 3322 
L 2350 2988 
L 1269 2988 
L 1269 878 
Q 1269 456 1350 337 
Q 1431 219 1650 219 
Q 1875 219 1978 351 
Q 2081 484 2088 781 
L 2522 781 
Q 2497 328 2275 118 
Q 2053 -91 1600 -91 
Q 1103 -91 897 129 
Q 691 350 691 878 
L 691 2988 
z
" id="DejaVuSerif-74" transform="scale(0.015625)"/>
       <path d="M 2266 3322 
L 3341 3322 
L 3341 331 
L 3884 331 
L 3884 0 
L 2766 0 
L 2766 588 
Q 2606 256 2353 82 
Q 2100 -91 1766 -91 
Q 1213 -91 952 223 
Q 691 538 691 1209 
L 691 2988 
L 172 2988 
L 172 3322 
L 1269 3322 
L 1269 1388 
Q 1269 781 1417 556 
Q 1566 331 1947 331 
Q 2347 331 2556 625 
Q 2766 919 2766 1478 
L 2766 2988 
L 2266 2988 
L 2266 3322 
z
" id="DejaVuSerif-75" transform="scale(0.015625)"/>
       <path id="DejaVuSerif-20" transform="scale(0.015625)"/>
       <path d="M 550 4863 
L 2003 4863 
L 2003 4531 
L 1147 4531 
L 1147 -513 
L 2003 -513 
L 2003 -844 
L 550 -844 
L 550 4863 
z
" id="DejaVuSerif-5b" transform="scale(0.015625)"/>
       <path d="M 1600 4319 
Q 1363 4319 1200 4155 
Q 1038 3991 1038 3750 
Q 1038 3513 1198 3353 
Q 1359 3194 1600 3194 
Q 1838 3194 2000 3355 
Q 2163 3516 2163 3750 
Q 2163 3984 1997 4151 
Q 1831 4319 1600 4319 
z
M 1600 4750 
Q 1800 4750 1984 4673 
Q 2169 4597 2303 4453 
Q 2447 4313 2519 4134 
Q 2591 3956 2591 3750 
Q 2591 3338 2302 3052 
Q 2013 2766 1594 2766 
Q 1172 2766 890 3047 
Q 609 3328 609 3750 
Q 609 4169 896 4459 
Q 1184 4750 1600 4750 
z
" id="DejaVuSerif-b0" transform="scale(0.015625)"/>
       <path d="M 4513 1234 
Q 4306 581 3820 245 
Q 3334 -91 2591 -91 
Q 2134 -91 1743 65 
Q 1353 222 1050 525 
Q 700 875 529 1320 
Q 359 1766 359 2328 
Q 359 3416 987 4083 
Q 1616 4750 2644 4750 
Q 3025 4750 3456 4650 
Q 3888 4550 4384 4347 
L 4384 3272 
L 4031 3272 
Q 3916 3859 3567 4137 
Q 3219 4416 2591 4416 
Q 1844 4416 1459 3886 
Q 1075 3356 1075 2328 
Q 1075 1303 1459 773 
Q 1844 244 2591 244 
Q 3113 244 3450 492 
Q 3788 741 3938 1234 
L 4513 1234 
z
" id="DejaVuSerif-43" transform="scale(0.015625)"/>
       <path d="M 1947 4863 
L 1947 -844 
L 494 -844 
L 494 -513 
L 1350 -513 
L 1350 4531 
L 494 4531 
L 494 4863 
L 1947 4863 
z
" id="DejaVuSerif-5d" transform="scale(0.015625)"/>
      </defs>
      <use xlink:href="#DejaVuSerif-54"/>
      <use x="58.949219" xlink:href="#DejaVuSerif-65"/>
      <use x="118.128906" xlink:href="#DejaVuSerif-6d"/>
      <use x="212.953125" xlink:href="#DejaVuSerif-70"/>
      <use x="276.966797" xlink:href="#DejaVuSerif-65"/>
      <use x="336.146484" xlink:href="#DejaVuSerif-72"/>
      <use x="383.949219" xlink:href="#DejaVuSerif-61"/>
      <use x="443.568359" xlink:href="#DejaVuSerif-74"/>
      <use x="483.753906" xlink:href="#DejaVuSerif-75"/>
      <use x="548.158203" xlink:href="#DejaVuSerif-72"/>
      <use x="595.960938" xlink:href="#DejaVuSerif-65"/>
      <use x="655.140625" xlink:href="#DejaVuSerif-20"/>
      <use x="686.927734" xlink:href="#DejaVuSerif-5b"/>
      <use x="725.941406" xlink:href="#DejaVuSerif-b0"/>
      <use x="775.941406" xlink:href="#DejaVuSerif-43"/>
      <use x="852.455078" xlink:href="#DejaVuSerif-5d"/>
     </g>
    </g>
   </g>
   <g id="line2d_41">
    <path clip-path="url(#p68e946b707)" d="M 38.158125 70.377146 
L 39.637816 70.377146 
L 39.637816 72.279375 
L 45.556579 72.279375 
L 45.556579 71.328261 
L 48.515961 71.328261 
L 48.515961 72.279375 
L 51.475342 72.279375 
L 51.475342 69.426032 
L 54.434724 69.426032 
L 54.434724 71.328261 
L 57.394105 71.328261 
L 57.394105 70.377146 
L 60.353487 70.377146 
L 60.353487 71.328261 
L 66.27225 71.328261 
L 66.27225 72.279375 
L 69.231632 72.279375 
L 69.231632 71.328261 
L 72.191013 71.328261 
L 72.191013 72.279375 
L 75.150395 72.279375 
L 75.150395 70.377146 
L 78.109776 70.377146 
L 78.109776 71.328261 
L 84.028539 71.328261 
L 84.028539 70.377146 
L 86.987921 70.377146 
L 86.987921 69.426032 
L 89.947303 69.426032 
L 89.947303 72.279375 
L 92.906684 72.279375 
L 92.906684 70.377146 
L 95.866066 70.377146 
L 95.866066 72.279375 
L 98.825447 72.279375 
L 98.825447 71.328261 
L 104.744211 71.328261 
L 104.744211 70.377146 
L 107.703592 70.377146 
L 107.703592 71.328261 
L 113.622355 71.328261 
L 113.622355 72.279375 
L 116.581737 72.279375 
L 116.581737 71.328261 
L 122.5005 71.328261 
L 122.5005 70.377146 
L 125.459882 70.377146 
L 125.459882 71.328261 
L 131.378645 71.328261 
L 131.378645 70.377146 
L 137.297408 70.377146 
L 137.297408 69.426032 
L 140.256789 69.426032 
L 140.256789 70.377146 
L 143.216171 70.377146 
L 143.216171 68.474917 
L 146.175553 68.474917 
L 146.175553 70.377146 
L 149.134934 70.377146 
L 149.134934 68.474917 
L 152.094316 68.474917 
L 152.094316 55.159315 
L 155.053697 55.159315 
L 155.053697 68.474917 
L 158.013079 68.474917 
L 158.013079 67.523803 
L 163.931842 67.523803 
L 163.931842 66.572688 
L 166.891224 66.572688 
L 166.891224 64.670459 
L 169.850605 64.670459 
L 169.850605 62.768231 
L 175.769368 62.768231 
L 175.769368 60.866002 
L 181.688132 60.866002 
L 181.688132 59.914887 
L 184.647513 59.914887 
L 184.647513 58.963773 
L 190.566276 58.963773 
L 190.566276 59.914887 
L 193.525658 59.914887 
L 193.525658 58.963773 
L 205.363184 58.963773 
L 205.363184 58.012658 
L 208.322566 58.012658 
L 208.322566 58.963773 
L 211.281947 58.963773 
L 211.281947 58.012658 
L 214.241329 58.012658 
L 214.241329 58.963773 
L 217.200711 58.963773 
L 217.200711 57.061544 
L 220.160092 57.061544 
L 220.160092 58.963773 
L 226.078855 58.963773 
L 226.078855 60.866002 
L 229.038237 60.866002 
L 229.038237 59.914887 
L 231.997618 59.914887 
L 231.997618 58.963773 
L 234.957 58.963773 
L 234.957 59.914887 
L 237.916382 59.914887 
L 237.916382 60.866002 
L 240.875763 60.866002 
L 240.875763 61.817116 
L 243.835145 61.817116 
L 243.835145 62.768231 
L 246.794526 62.768231 
L 246.794526 63.719345 
L 255.672671 63.719345 
L 255.672671 64.670459 
L 258.632053 64.670459 
L 258.632053 65.621574 
L 261.591434 65.621574 
L 261.591434 66.572688 
L 267.510197 66.572688 
L 267.510197 67.523803 
L 270.469579 67.523803 
L 270.469579 68.474917 
L 273.428961 68.474917 
L 273.428961 67.523803 
L 276.388342 67.523803 
L 276.388342 68.474917 
L 279.347724 68.474917 
L 279.347724 69.426032 
L 285.266487 69.426032 
L 285.266487 70.377146 
L 294.144632 70.377146 
L 294.144632 71.328261 
L 308.941539 71.328261 
L 308.941539 69.426032 
L 311.900921 69.426032 
L 311.900921 70.377146 
L 314.860303 70.377146 
L 314.860303 69.426032 
L 319.299375 69.426032 
L 319.299375 69.426032 
" style="fill:none;stroke:#0000ff;stroke-dasharray:3.7,1.6;stroke-dashoffset:0;"/>
   </g>
   <g id="line2d_42">
    <path clip-path="url(#p68e946b707)" d="M 38.158125 32.332568 
L 54.434724 32.332568 
L 54.434724 30.560037 
L 57.394105 30.560037 
L 57.394105 32.332568 
L 146.175553 32.332568 
L 146.175553 32.116797 
L 149.134934 32.116797 
L 149.134934 32.332568 
L 158.013079 32.332568 
L 158.013079 30.732967 
L 160.972461 30.732967 
L 160.972461 32.332568 
L 163.931842 32.332568 
L 163.931842 30.776199 
L 166.891224 30.776199 
L 166.891224 32.332568 
L 175.769368 32.332568 
L 175.769368 31.035594 
L 178.72875 31.035594 
L 178.72875 32.332568 
L 196.485039 32.332568 
L 196.485039 31.122059 
L 199.444421 31.122059 
L 199.444421 32.332568 
L 202.403803 32.332568 
L 202.403803 31.122059 
L 205.363184 31.122059 
L 205.363184 32.332568 
L 211.281947 32.332568 
L 211.281947 31.165291 
L 214.241329 31.165291 
L 214.241329 32.332568 
L 220.160092 32.332568 
L 220.160092 31.122059 
L 223.119474 31.122059 
L 223.119474 32.332568 
L 226.078855 32.332568 
L 226.078855 30.430339 
L 229.038237 30.430339 
L 229.038237 31.753629 
L 231.997618 31.753629 
L 231.997618 32.332568 
L 240.875763 32.332568 
L 240.875763 31.245654 
L 243.835145 31.245654 
L 243.835145 32.332568 
L 249.753908 32.332568 
L 249.753908 30.905897 
L 252.713289 30.905897 
L 252.713289 32.332568 
L 319.299375 32.332568 
L 319.299375 32.332568 
" style="fill:none;stroke:#ff0000;stroke-dasharray:3.7,1.6;stroke-dashoffset:0;"/>
   </g>
   <g id="patch_3">
    <path d="M 38.158125 72.279375 
L 38.158125 28.337887 
" style="fill:none;stroke:#000000;stroke-linecap:square;stroke-linejoin:miter;stroke-width:0.4;"/>
   </g>
   <g id="patch_4">
    <path d="M 319.299375 72.279375 
L 319.299375 28.337887 
" style="fill:none;stroke:#000000;stroke-linecap:square;stroke-linejoin:miter;stroke-width:0.4;"/>
   </g>
   <g id="patch_5">
    <path d="M 38.158125 72.279375 
L 319.299375 72.279375 
" style="fill:none;stroke:#000000;stroke-linecap:square;stroke-linejoin:miter;stroke-width:0.4;"/>
   </g>
   <g id="patch_6">
    <path d="M 38.158125 28.337887 
L 319.299375 28.337887 
" style="fill:none;stroke:#000000;stroke-linecap:square;stroke-linejoin:miter;stroke-width:0.4;"/>
   </g>
   <g id="legend_1">
    <g id="patch_7">
     <path d="M 43.058125 23.959058 
L 259.044219 23.959058 
Q 260.444219 23.959058 260.444219 22.559058 
L 260.444219 12.98437 
Q 260.444219 11.58437 259.044219 11.58437 
L 43.058125 11.58437 
Q 41.658125 11.58437 41.658125 12.98437 
L 41.658125 22.559058 
Q 41.658125 23.959058 43.058125 23.959058 
z
" style="fill:#ffffff;opacity:0.8;stroke:#cccccc;stroke-linejoin:miter;stroke-width:0.4;"/>
    </g>
    <g id="line2d_43">
     <path d="M 44.458125 17.253276 
L 65.458125 17.253276 
" style="fill:none;stroke:#0000ff;stroke-dasharray:3.7,1.6;stroke-dashoffset:0;"/>
    </g>
    <g id="line2d_44"/>
    <g id="text_17">
     <!-- Ambient temperature -->
     <g transform="translate(71.058125 19.703276)scale(0.07 -0.07)">
      <defs>
       <path d="M 1281 1691 
L 2994 1691 
L 2138 3909 
L 1281 1691 
z
M -38 0 
L -38 331 
L 372 331 
L 2034 4666 
L 2559 4666 
L 4225 331 
L 4684 331 
L 4684 0 
L 2988 0 
L 2988 331 
L 3506 331 
L 3116 1356 
L 1153 1356 
L 763 331 
L 1275 331 
L 1275 0 
L -38 0 
z
" id="DejaVuSerif-41" transform="scale(0.015625)"/>
       <path d="M 738 331 
L 738 4531 
L 184 4531 
L 184 4863 
L 1313 4863 
L 1313 2803 
Q 1481 3116 1742 3264 
Q 2003 3413 2388 3413 
Q 3000 3413 3387 2928 
Q 3775 2444 3775 1663 
Q 3775 881 3387 395 
Q 3000 -91 2388 -91 
Q 2003 -91 1742 57 
Q 1481 206 1313 519 
L 1313 0 
L 184 0 
L 184 331 
L 738 331 
z
M 1313 1497 
Q 1313 897 1542 583 
Q 1772 269 2209 269 
Q 2650 269 2876 622 
Q 3103 975 3103 1663 
Q 3103 2353 2876 2703 
Q 2650 3053 2209 3053 
Q 1772 3053 1542 2737 
Q 1313 2422 1313 1825 
L 1313 1497 
z
" id="DejaVuSerif-62" transform="scale(0.015625)"/>
       <path d="M 263 0 
L 263 331 
L 781 331 
L 781 2988 
L 231 2988 
L 231 3322 
L 1356 3322 
L 1356 2731 
Q 1516 3069 1770 3241 
Q 2025 3413 2363 3413 
Q 2913 3413 3172 3097 
Q 3431 2781 3431 2113 
L 3431 331 
L 3944 331 
L 3944 0 
L 2356 0 
L 2356 331 
L 2853 331 
L 2853 1931 
Q 2853 2541 2703 2767 
Q 2553 2994 2175 2994 
Q 1775 2994 1565 2701 
Q 1356 2409 1356 1850 
L 1356 331 
L 1856 331 
L 1856 0 
L 263 0 
z
" id="DejaVuSerif-6e" transform="scale(0.015625)"/>
      </defs>
      <use xlink:href="#DejaVuSerif-41"/>
      <use x="72.216797" xlink:href="#DejaVuSerif-6d"/>
      <use x="167.041016" xlink:href="#DejaVuSerif-62"/>
      <use x="231.054688" xlink:href="#DejaVuSerif-69"/>
      <use x="263.037109" xlink:href="#DejaVuSerif-65"/>
      <use x="322.216797" xlink:href="#DejaVuSerif-6e"/>
      <use x="386.621094" xlink:href="#DejaVuSerif-74"/>
      <use x="426.806641" xlink:href="#DejaVuSerif-20"/>
      <use x="458.59375" xlink:href="#DejaVuSerif-74"/>
      <use x="498.779297" xlink:href="#DejaVuSerif-65"/>
      <use x="557.958984" xlink:href="#DejaVuSerif-6d"/>
      <use x="652.783203" xlink:href="#DejaVuSerif-70"/>
      <use x="716.796875" xlink:href="#DejaVuSerif-65"/>
      <use x="775.976562" xlink:href="#DejaVuSerif-72"/>
      <use x="823.779297" xlink:href="#DejaVuSerif-61"/>
      <use x="883.398438" xlink:href="#DejaVuSerif-74"/>
      <use x="923.583984" xlink:href="#DejaVuSerif-75"/>
      <use x="987.988281" xlink:href="#DejaVuSerif-72"/>
      <use x="1035.791016" xlink:href="#DejaVuSerif-65"/>
     </g>
    </g>
    <g id="line2d_45">
     <path d="M 161.709219 17.253276 
L 182.709219 17.253276 
" style="fill:none;stroke:#ff0000;stroke-dasharray:3.7,1.6;stroke-dashoffset:0;"/>
    </g>
    <g id="line2d_46"/>
    <g id="text_18">
     <!-- House temperature -->
     <g transform="translate(188.309219 19.703276)scale(0.07 -0.07)">
      <defs>
       <path d="M 353 0 
L 353 331 
L 947 331 
L 947 4331 
L 353 4331 
L 353 4666 
L 2175 4666 
L 2175 4331 
L 1581 4331 
L 1581 2719 
L 4000 2719 
L 4000 4331 
L 3406 4331 
L 3406 4666 
L 5228 4666 
L 5228 4331 
L 4634 4331 
L 4634 331 
L 5228 331 
L 5228 0 
L 3406 0 
L 3406 331 
L 4000 331 
L 4000 2338 
L 1581 2338 
L 1581 331 
L 2175 331 
L 2175 0 
L 353 0 
z
" id="DejaVuSerif-48" transform="scale(0.015625)"/>
       <path d="M 1925 219 
Q 2388 219 2623 584 
Q 2859 950 2859 1663 
Q 2859 2375 2623 2739 
Q 2388 3103 1925 3103 
Q 1463 3103 1227 2739 
Q 991 2375 991 1663 
Q 991 950 1228 584 
Q 1466 219 1925 219 
z
M 1925 -91 
Q 1200 -91 759 389 
Q 319 869 319 1663 
Q 319 2456 758 2934 
Q 1197 3413 1925 3413 
Q 2653 3413 3092 2934 
Q 3531 2456 3531 1663 
Q 3531 869 3092 389 
Q 2653 -91 1925 -91 
z
" id="DejaVuSerif-6f" transform="scale(0.015625)"/>
       <path d="M 359 184 
L 359 959 
L 691 959 
Q 703 588 923 403 
Q 1144 219 1575 219 
Q 1963 219 2166 364 
Q 2369 509 2369 788 
Q 2369 1006 2220 1140 
Q 2072 1275 1594 1428 
L 1178 1569 
Q 750 1706 558 1912 
Q 366 2119 366 2438 
Q 366 2894 700 3153 
Q 1034 3413 1625 3413 
Q 1888 3413 2178 3344 
Q 2469 3275 2778 3144 
L 2778 2419 
L 2447 2419 
Q 2434 2741 2221 2922 
Q 2009 3103 1644 3103 
Q 1281 3103 1095 2975 
Q 909 2847 909 2591 
Q 909 2381 1050 2254 
Q 1191 2128 1613 1997 
L 2069 1856 
Q 2541 1709 2748 1489 
Q 2956 1269 2956 922 
Q 2956 450 2595 179 
Q 2234 -91 1600 -91 
Q 1278 -91 972 -22 
Q 666 47 359 184 
z
" id="DejaVuSerif-73" transform="scale(0.015625)"/>
      </defs>
      <use xlink:href="#DejaVuSerif-48"/>
      <use x="87.207031" xlink:href="#DejaVuSerif-6f"/>
      <use x="147.412109" xlink:href="#DejaVuSerif-75"/>
      <use x="211.816406" xlink:href="#DejaVuSerif-73"/>
      <use x="263.134766" xlink:href="#DejaVuSerif-65"/>
      <use x="322.314453" xlink:href="#DejaVuSerif-20"/>
      <use x="354.101562" xlink:href="#DejaVuSerif-74"/>
      <use x="394.287109" xlink:href="#DejaVuSerif-65"/>
      <use x="453.466797" xlink:href="#DejaVuSerif-6d"/>
      <use x="548.291016" xlink:href="#DejaVuSerif-70"/>
      <use x="612.304688" xlink:href="#DejaVuSerif-65"/>
      <use x="671.484375" xlink:href="#DejaVuSerif-72"/>
      <use x="719.287109" xlink:href="#DejaVuSerif-61"/>
      <use x="778.90625" xlink:href="#DejaVuSerif-74"/>
      <use x="819.091797" xlink:href="#DejaVuSerif-75"/>
      <use x="883.496094" xlink:href="#DejaVuSerif-72"/>
      <use x="931.298828" xlink:href="#DejaVuSerif-65"/>
     </g>
    </g>
   </g>
  </g>
  <g id="axes_2">
   <g id="matplotlib.axis_3">
    <g id="ytick_3">
     <g id="line2d_47">
      <defs>
       <path d="M 0 0 
L -3.5 0 
" id="m2139d83eae" style="stroke:#000000;stroke-width:0.4;"/>
      </defs>
      <g>
       <use style="stroke:#000000;stroke-width:0.4;" x="319.299375" xlink:href="#m2139d83eae" y="72.279375"/>
      </g>
     </g>
     <g id="text_19">
      <!-- 0.0 -->
      <g style="fill:#008000;" transform="translate(322.799375 75.31875)scale(0.08 -0.08)">
       <defs>
        <path d="M 603 325 
Q 603 500 722 622 
Q 841 744 1019 744 
Q 1191 744 1312 622 
Q 1434 500 1434 325 
Q 1434 153 1312 31 
Q 1191 -91 1019 -91 
Q 841 -91 722 29 
Q 603 150 603 325 
z
" id="DejaVuSerif-2e" transform="scale(0.015625)"/>
       </defs>
       <use xlink:href="#DejaVuSerif-30"/>
       <use x="63.623047" xlink:href="#DejaVuSerif-2e"/>
       <use x="95.410156" xlink:href="#DejaVuSerif-30"/>
      </g>
     </g>
    </g>
    <g id="ytick_4">
     <g id="line2d_48">
      <g>
       <use style="stroke:#000000;stroke-width:0.4;" x="319.299375" xlink:href="#m2139d83eae" y="49.995543"/>
      </g>
     </g>
     <g id="text_20">
      <!-- 0.5 -->
      <g style="fill:#008000;" transform="translate(322.799375 53.034918)scale(0.08 -0.08)">
       <defs>
        <path d="M 3219 4666 
L 3219 4153 
L 1081 4153 
L 1081 2816 
Q 1244 2928 1461 2984 
Q 1678 3041 1947 3041 
Q 2703 3041 3140 2622 
Q 3578 2203 3578 1478 
Q 3578 738 3136 323 
Q 2694 -91 1894 -91 
Q 1572 -91 1234 -12 
Q 897 66 544 225 
L 544 1131 
L 897 1131 
Q 925 688 1179 453 
Q 1434 219 1894 219 
Q 2388 219 2653 544 
Q 2919 869 2919 1478 
Q 2919 2084 2655 2407 
Q 2391 2731 1894 2731 
Q 1613 2731 1398 2631 
Q 1184 2531 1019 2322 
L 750 2322 
L 750 4666 
L 3219 4666 
z
" id="DejaVuSerif-35" transform="scale(0.015625)"/>
       </defs>
       <use xlink:href="#DejaVuSerif-30"/>
       <use x="63.623047" xlink:href="#DejaVuSerif-2e"/>
       <use x="95.410156" xlink:href="#DejaVuSerif-35"/>
      </g>
     </g>
    </g>
    <g id="text_21">
     <!-- Irradiance [kW/m2] -->
     <g style="fill:#008000;" transform="translate(347.120312 100.071912)rotate(-90)scale(0.1 -0.1)">
      <defs>
       <path d="M 1581 331 
L 2175 331 
L 2175 0 
L 353 0 
L 353 331 
L 947 331 
L 947 4331 
L 353 4331 
L 353 4666 
L 2175 4666 
L 2175 4331 
L 1581 4331 
L 1581 331 
z
" id="DejaVuSerif-49" transform="scale(0.015625)"/>
       <path d="M 3359 331 
L 3909 331 
L 3909 0 
L 2784 0 
L 2784 519 
Q 2616 206 2355 57 
Q 2094 -91 1709 -91 
Q 1097 -91 708 395 
Q 319 881 319 1663 
Q 319 2444 706 2928 
Q 1094 3413 1709 3413 
Q 2094 3413 2355 3264 
Q 2616 3116 2784 2803 
L 2784 4531 
L 2241 4531 
L 2241 4863 
L 3359 4863 
L 3359 331 
z
M 2784 1497 
L 2784 1825 
Q 2784 2422 2554 2737 
Q 2325 3053 1888 3053 
Q 1444 3053 1217 2703 
Q 991 2353 991 1663 
Q 991 975 1217 622 
Q 1444 269 1888 269 
Q 2325 269 2554 583 
Q 2784 897 2784 1497 
z
" id="DejaVuSerif-64" transform="scale(0.015625)"/>
       <path d="M 3291 997 
Q 3169 466 2822 187 
Q 2475 -91 1925 -91 
Q 1200 -91 759 389 
Q 319 869 319 1663 
Q 319 2459 759 2936 
Q 1200 3413 1925 3413 
Q 2241 3413 2553 3339 
Q 2866 3266 3181 3116 
L 3181 2266 
L 2847 2266 
Q 2781 2703 2561 2903 
Q 2341 3103 1931 3103 
Q 1466 3103 1228 2742 
Q 991 2381 991 1663 
Q 991 944 1227 581 
Q 1463 219 1931 219 
Q 2303 219 2525 412 
Q 2747 606 2828 997 
L 3291 997 
z
" id="DejaVuSerif-63" transform="scale(0.015625)"/>
       <path d="M 1831 0 
L 219 0 
L 219 331 
L 738 331 
L 738 4531 
L 184 4531 
L 184 4863 
L 1313 4863 
L 1313 1697 
L 2713 2988 
L 2234 2988 
L 2234 3322 
L 3738 3322 
L 3738 2988 
L 3169 2988 
L 2181 2075 
L 3444 331 
L 3922 331 
L 3922 0 
L 2284 0 
L 2284 331 
L 2759 331 
L 1766 1697 
L 1313 1275 
L 1313 331 
L 1831 331 
L 1831 0 
z
" id="DejaVuSerif-6b" transform="scale(0.015625)"/>
       <path d="M 4878 0 
L 4366 0 
L 3297 3794 
L 2228 0 
L 1716 0 
L 494 4331 
L 31 4331 
L 31 4666 
L 1734 4666 
L 1734 4331 
L 1153 4331 
L 2125 884 
L 3188 4666 
L 3694 4666 
L 4775 844 
L 5753 4331 
L 5216 4331 
L 5216 4666 
L 6559 4666 
L 6559 4331 
L 6100 4331 
L 4878 0 
z
" id="DejaVuSerif-57" transform="scale(0.015625)"/>
       <path d="M 1656 4666 
L 2156 4666 
L 500 -594 
L 0 -594 
L 1656 4666 
z
" id="DejaVuSerif-2f" transform="scale(0.015625)"/>
      </defs>
      <use xlink:href="#DejaVuSerif-49"/>
      <use x="39.501953" xlink:href="#DejaVuSerif-72"/>
      <use x="87.304688" xlink:href="#DejaVuSerif-72"/>
      <use x="135.107422" xlink:href="#DejaVuSerif-61"/>
      <use x="194.726562" xlink:href="#DejaVuSerif-64"/>
      <use x="258.740234" xlink:href="#DejaVuSerif-69"/>
      <use x="290.722656" xlink:href="#DejaVuSerif-61"/>
      <use x="350.341797" xlink:href="#DejaVuSerif-6e"/>
      <use x="414.746094" xlink:href="#DejaVuSerif-63"/>
      <use x="470.751953" xlink:href="#DejaVuSerif-65"/>
      <use x="529.931641" xlink:href="#DejaVuSerif-20"/>
      <use x="561.71875" xlink:href="#DejaVuSerif-5b"/>
      <use x="600.732422" xlink:href="#DejaVuSerif-6b"/>
      <use x="661.328125" xlink:href="#DejaVuSerif-57"/>
      <use x="764.111328" xlink:href="#DejaVuSerif-2f"/>
      <use x="797.802734" xlink:href="#DejaVuSerif-6d"/>
      <use x="892.626953" xlink:href="#DejaVuSerif-32"/>
      <use x="956.25" xlink:href="#DejaVuSerif-5d"/>
     </g>
    </g>
   </g>
   <g id="line2d_49">
    <path clip-path="url(#p68e946b707)" d="M 38.158125 72.279375 
L 81.069158 72.257091 
L 81.069158 72.145672 
L 84.028539 72.145672 
L 84.028539 71.789131 
L 86.987921 71.789131 
L 86.987921 71.165183 
L 89.947303 71.165183 
L 89.947303 69.961857 
L 92.906684 69.961857 
L 92.906684 68.446556 
L 95.866066 68.446556 
L 95.866066 67.443784 
L 98.825447 67.443784 
L 98.825447 68.357421 
L 101.784829 68.357421 
L 101.784829 65.906199 
L 104.744211 65.906199 
L 104.744211 61.092892 
L 107.703592 61.092892 
L 107.703592 59.020495 
L 110.662974 59.020495 
L 110.662974 60.55808 
L 113.622355 60.55808 
L 113.622355 64.702872 
L 119.541118 64.792008 
L 119.541118 61.850542 
L 122.5005 61.850542 
L 122.5005 58.106858 
L 125.459882 58.106858 
L 125.459882 59.51074 
L 128.419263 59.51074 
L 128.419263 57.839452 
L 131.378645 57.839452 
L 131.378645 54.964838 
L 134.338026 54.964838 
L 134.338026 49.950976 
L 137.297408 49.950976 
L 137.297408 45.538777 
L 140.256789 45.538777 
L 140.256789 49.148758 
L 143.216171 49.148758 
L 143.216171 54.563729 
L 146.175553 54.563729 
L 146.175553 55.700204 
L 149.134934 55.700204 
L 149.134934 54.831135 
L 152.094316 54.831135 
L 152.094316 51.377141 
L 155.053697 51.377141 
L 155.053697 51.533128 
L 158.013079 51.533128 
L 158.013079 49.906408 
L 160.972461 49.906408 
L 160.972461 50.218382 
L 163.931842 50.218382 
L 163.931842 50.084679 
L 166.891224 50.084679 
L 166.891224 35.533337 
L 169.850605 35.533337 
L 169.850605 37.070921 
L 172.809987 37.070921 
L 172.809987 36.469258 
L 175.769368 36.469258 
L 175.769368 36.313271 
L 178.72875 36.313271 
L 178.72875 30.430339 
L 181.688132 30.430339 
L 181.688132 31.410828 
L 184.647513 31.410828 
L 184.647513 35.622472 
L 187.606895 35.622472 
L 187.606895 31.767369 
L 190.566276 31.767369 
L 190.566276 37.917707 
L 193.525658 37.917707 
L 193.525658 34.887106 
L 196.485039 34.887106 
L 196.485039 47.499754 
L 199.444421 47.499754 
L 199.444421 53.739227 
L 202.403803 53.739227 
L 202.403803 35.08766 
L 205.363184 35.08766 
L 205.363184 51.599979 
L 208.322566 51.599979 
L 208.322566 46.786672 
L 211.281947 46.786672 
L 211.281947 39.611278 
L 214.241329 39.611278 
L 214.241329 43.845206 
L 217.200711 43.845206 
L 217.200711 47.856296 
L 220.160092 47.856296 
L 220.160092 58.396548 
L 223.119474 58.396548 
L 223.119474 58.151426 
L 226.078855 58.151426 
L 226.078855 51.065167 
L 229.038237 51.065167 
L 229.038237 51.867385 
L 231.997618 51.867385 
L 231.997618 54.363174 
L 234.957 54.363174 
L 234.957 57.438343 
L 237.916382 57.438343 
L 237.916382 59.488456 
L 240.875763 59.488456 
L 240.875763 65.638793 
L 243.835145 65.638793 
L 243.835145 68.045447 
L 249.753908 68.045447 
L 249.753908 69.092787 
L 252.713289 69.092787 
L 252.713289 66.396443 
L 255.672671 66.396443 
L 255.672671 68.959084 
L 258.632053 68.959084 
L 258.632053 69.51618 
L 261.591434 69.51618 
L 261.591434 71.365738 
L 264.550816 71.365738 
L 264.550816 71.967401 
L 267.510197 71.967401 
L 267.510197 72.123388 
L 270.469579 72.123388 
L 270.469579 72.234807 
L 319.299375 72.279375 
L 319.299375 72.279375 
" style="fill:none;stroke:#008000;stroke-dasharray:3.7,1.6;stroke-dashoffset:0;"/>
   </g>
   <g id="patch_8">
    <path d="M 38.158125 72.279375 
L 38.158125 28.337887 
" style="fill:none;stroke:#000000;stroke-linecap:square;stroke-linejoin:miter;stroke-width:0.4;"/>
   </g>
   <g id="patch_9">
    <path d="M 319.299375 72.279375 
L 319.299375 28.337887 
" style="fill:none;stroke:#000000;stroke-linecap:square;stroke-linejoin:miter;stroke-width:0.4;"/>
   </g>
   <g id="patch_10">
    <path d="M 38.158125 72.279375 
L 319.299375 72.279375 
" style="fill:none;stroke:#000000;stroke-linecap:square;stroke-linejoin:miter;stroke-width:0.4;"/>
   </g>
   <g id="patch_11">
    <path d="M 38.158125 28.337887 
L 319.299375 28.337887 
" style="fill:none;stroke:#000000;stroke-linecap:square;stroke-linejoin:miter;stroke-width:0.4;"/>
   </g>
   <g id="legend_2">
    <g id="patch_12">
     <path d="M 227.4375 23.959058 
L 314.399375 23.959058 
Q 315.799375 23.959058 315.799375 22.559058 
L 315.799375 12.98437 
Q 315.799375 11.58437 314.399375 11.58437 
L 227.4375 11.58437 
Q 226.0375 11.58437 226.0375 12.98437 
L 226.0375 22.559058 
Q 226.0375 23.959058 227.4375 23.959058 
z
" style="fill:#ffffff;opacity:0.8;stroke:#cccccc;stroke-linejoin:miter;stroke-width:0.4;"/>
    </g>
    <g id="line2d_50">
     <path d="M 228.8375 17.253276 
L 249.8375 17.253276 
" style="fill:none;stroke:#008000;stroke-dasharray:3.7,1.6;stroke-dashoffset:0;"/>
    </g>
    <g id="line2d_51"/>
    <g id="text_22">
     <!-- Solar irradiance -->
     <g transform="translate(255.4375 19.703276)scale(0.07 -0.07)">
      <defs>
       <path d="M 594 225 
L 594 1288 
L 953 1284 
Q 969 753 1261 498 
Q 1553 244 2150 244 
Q 2706 244 2998 464 
Q 3291 684 3291 1106 
Q 3291 1444 3114 1625 
Q 2938 1806 2369 1978 
L 1753 2163 
Q 1084 2366 811 2669 
Q 538 2972 538 3500 
Q 538 4094 959 4422 
Q 1381 4750 2144 4750 
Q 2469 4750 2856 4679 
Q 3244 4609 3681 4475 
L 3681 3481 
L 3328 3481 
Q 3275 3975 2998 4195 
Q 2722 4416 2156 4416 
Q 1663 4416 1405 4214 
Q 1147 4013 1147 3628 
Q 1147 3294 1340 3103 
Q 1534 2913 2163 2725 
L 2741 2553 
Q 3375 2363 3645 2067 
Q 3916 1772 3916 1275 
Q 3916 597 3481 253 
Q 3047 -91 2188 -91 
Q 1803 -91 1404 -12 
Q 1006 66 594 225 
z
" id="DejaVuSerif-53" transform="scale(0.015625)"/>
       <path d="M 1313 331 
L 1856 331 
L 1856 0 
L 184 0 
L 184 331 
L 738 331 
L 738 4531 
L 184 4531 
L 184 4863 
L 1313 4863 
L 1313 331 
z
" id="DejaVuSerif-6c" transform="scale(0.015625)"/>
      </defs>
      <use xlink:href="#DejaVuSerif-53"/>
      <use x="68.505859" xlink:href="#DejaVuSerif-6f"/>
      <use x="128.710938" xlink:href="#DejaVuSerif-6c"/>
      <use x="160.693359" xlink:href="#DejaVuSerif-61"/>
      <use x="220.3125" xlink:href="#DejaVuSerif-72"/>
      <use x="268.115234" xlink:href="#DejaVuSerif-20"/>
      <use x="299.902344" xlink:href="#DejaVuSerif-69"/>
      <use x="331.884766" xlink:href="#DejaVuSerif-72"/>
      <use x="379.6875" xlink:href="#DejaVuSerif-72"/>
      <use x="427.490234" xlink:href="#DejaVuSerif-61"/>
      <use x="487.109375" xlink:href="#DejaVuSerif-64"/>
      <use x="551.123047" xlink:href="#DejaVuSerif-69"/>
      <use x="583.105469" xlink:href="#DejaVuSerif-61"/>
      <use x="642.724609" xlink:href="#DejaVuSerif-6e"/>
      <use x="707.128906" xlink:href="#DejaVuSerif-63"/>
      <use x="763.134766" xlink:href="#DejaVuSerif-65"/>
     </g>
    </g>
   </g>
  </g>
 </g>
 <defs>
  <clipPath id="p68e946b707">
   <rect height="43.941488" width="281.14125" x="38.158125" y="28.337887"/>
  </clipPath>
 </defs>
</svg>
